<?xml version="1.0" encoding="utf-8" ?>
<svg baseProfile="full" height="200mm" version="1.1" viewBox="0,0,200,200" width="200mm" xmlns="http://www.w3.org/2000/svg" xmlns:ev="http://www.w3.org/2001/xml-events" xmlns:xlink="http://www.w3.org/1999/xlink"><defs /><rect fill="#1a1a1a" height="200" width="200" x="0" y="0" /><text alignment-baseline="middle" fill="#e1ed5e" style="dominant-baseline: central; font-size:9.0px; font-family:Arial;" text-anchor="middle" x="100.0" y="100.0">2023</text><line stroke="#e1ed5e" stroke-width="0.3" x1="100.0" x2="100.0" y1="15.0" y2="10.0" /><path d="M 100.0 14.0 a86.0,86.0 0 0,1 42.46469731375804,11.215312516191453" fill="none" id="id37" stroke="none" /><text fill="#e1ed5e" style="font-size:6.75px; font-family:Arial;" text-anchor="middle"><textPath startOffset="22.20632615414155" xlink:href="#id37">January</textPath></text><line stroke="#e1ed5e" stroke-width="0.3" x1="143.23703022742887" x2="145.7803849466894" y1="26.81831364943548" y2="22.513508569990506" /><path d="M 143.74570117128098 25.957352633546492 a86.0,86.0 0 0,1 28.547481713284135,27.462654790039103" fill="none" id="id38" stroke="none" /><text fill="#e1ed5e" style="font-size:6.75px; font-family:Arial;" text-anchor="middle"><textPath startOffset="19.985693538727396" xlink:href="#id38">February</textPath></text><path d="M 112.19680574252982 82.90503203632743 l 16.257012947739053 -22.78572942729885 a48.990711593616695,48.990711593616695 0 0,0 0.682264907653045,0.4956944707755845 l -16.646823171745886 22.50251572170659" fill="#d7ff1c" stroke="none" /><path d="M 114.16331599549186 84.49514656593476 l 12.748123194862604 -13.955614755659346 a39.901688501289264,39.901688501289264 0 0,0 0.5031263113531054,0.4676010737164542 l -12.986457390010557 13.73410909586825" fill="#ffa70f" stroke="none" /><path d="M 114.42810811169701 84.74124197986012 l 14.640651000014044 -15.483537352026227 a42.309354533533,42.309354533533 0 0,0 0.5248712289489641,0.5049257063939737 l -14.905005472575427 15.229228558869952" fill="#ffca12" stroke="none" /><path d="M 114.68862486808459 84.99185889309783 l 28.72996749647708 -29.354919882303992 a62.07459499064009,62.07459499064009 0 0,0 0.7572042359864213,0.7539525603583818 l -29.231007532630823 28.85603147129549" fill="#38ff2e" stroke="none" /><path d="M 115.4437574822437 85.77008943001954 l 11.02372896707431 -10.157287015774916 a35.98976583740863,35.98976583740863 0 0,0 0.41586407396128344,0.45920749728358323 l -11.196936681651628 9.966026731221783" fill="#ff6c0a" stroke="none" /><path d="M 115.68641384162765 86.03803664274999 l 24.679405060012503 -21.966330393006608 a54.03926005604388,54.03926005604388 0 0,0 0.6124658847414776,0.700154381692998 l -25.05386280833183 21.538260455110663" fill="#97ff23" stroke="none" /><path d="M 116.15771136456269 86.58626213691792 l 9.748853298555217 -8.093260218725405 a33.67047756024824,33.67047756024824 0 0,0 0.36636928071543623,0.4491254181657496 l -9.886721071347061 7.924250630951555" fill="#ff4806" stroke="none" /><path d="M 116.38621287248628 86.86637796730983 l 14.818837103491088 -11.877363427155737 a39.991305776079244,39.991305776079244 0 0,0 0.42589963564472183,0.5408492864836331 l -15.021090819729775 11.620521746719065" fill="#ffa90f" stroke="none" /><path d="M 116.60985879189232 87.15038557335679 l 25.862438219862046 -20.007536693829255 a53.6981228089795,53.6981228089795 0 0,0 0.5592891153868631,0.7359589167159151 l -26.203003275473023 19.55939300123231" fill="#9bff22" stroke="none" /><path d="M 117.65298651832404 88.62581576622439 l 10.399973068558065 -6.700917693745261 a33.37181222639114,33.37181222639114 0 0,0 0.3069768183524087,0.4855636059911251 l -10.51377748315643 6.520906440039929" fill="#ff4306" stroke="none" /><line stroke="#e1ed5e" stroke-width="0.3" x1="172.23445277983987" x2="176.4835382374775" y1="55.19839476539836" y2="52.563006222186495" /><path d="M 173.08426987136738 54.67131705675599 a86.0,86.0 0 0,1 12.851231095245387,41.99856678651699" fill="none" id="id39" stroke="none" /><text fill="#e1ed5e" style="font-size:6.75px; font-family:Arial;" text-anchor="middle"><textPath startOffset="22.20632615414155" xlink:href="#id39">March</textPath></text><path d="M 117.84615892207809 88.93136811851018 l 20.151811987281523 -12.49865529081816 a44.71311684383645,44.71311684383645 0 0,0 0.40004229830185745,0.6575643543682841 l -20.363970083869606 12.149923163242795" fill="#ffec16" stroke="none" /><path d="M 118.03404312379186 89.2402003453031 l 28.177523373242025 -16.811787804901034 a53.81172096441483,53.81172096441483 0 0,0 0.4677528124836284,0.7995411808364251 l -28.46273586019598 16.324267211710712" fill="#99ff23" stroke="none" /><path d="M 118.3937258080291 89.86733742301442 l 11.285390280462554 -6.216850949882273 a33.88445844866639,33.88445844866639 0 0,0 0.2770327180002134,0.5132995524762817 l -11.39073109768123 6.021670414073533" fill="#ff4c07" stroke="none" /><path d="M 118.73160827565052 90.50648371742162 l 23.0937038304603 -11.704304836681406 a46.8903439204461,46.8903439204461 0 0,0 0.35868877333289045,0.7230946795534776 l -23.291752616746596 11.305050568628978" fill="#f4ff19" stroke="none" /><path d="M 118.89224826269711 90.83032412892265 l 11.571473678364796 -5.616412695084929 a33.862468450907876,33.862468450907876 0 0,0 0.25000467950501454,0.5265736141798518 l -11.666436551711566 5.416396665264537" fill="#ff4b07" stroke="none" /><path d="M 119.04729006885535 91.15688171328212 l 11.797335289177333 -5.477169248388292 a34.00678680154169,34.00678680154169 0 0,0 0.2419302455081791,0.533061226907988 l -11.889867851648859 5.273286012638241" fill="#ff4d07" stroke="none" /><path d="M 119.196687751892 91.48605970444005 l 12.120767103669484 -5.375692348116574 a34.259376433414786,34.259376433414786 0 0,0 0.2344471746894491,0.5411364032806317 l -12.211504988201614 5.166256800249339" fill="#ff5107" stroke="none" /><path d="M 119.85752413597 93.16781622104841 l 12.026317822637004 -4.137777347554675 a33.718235795463656,33.718235795463656 0 0,0 0.18410591264521126,0.5504532453663127 l -12.095761029053985 3.930150999266048" fill="#ff4906" stroke="none" /><path d="M 119.97218684219823 93.5106431181261 l 12.373299478840174 -4.020328708063528 a34.01005699118748,34.01005699118748 0 0,0 0.17611462831059144,0.5583314994066612 l -12.440669590918972 3.8067470422304477" fill="#ff4e07" stroke="none" /><path d="M 120.08093135843002 93.85539295169968 l 31.271895120107793 -9.568953936394795 a53.703154340825705,53.703154340825705 0 0,0 0.2628746463208081,0.886282625406939 l -31.431975663540303 9.029241924241326" fill="#9bff22" stroke="none" /><path d="M 120.53481517161879 95.60439243477599 l 12.332392621558922 -2.639826940325167 a33.61176411320587,33.61176411320587 0 0,0 0.1162338083542881,0.5667973291323435 l -12.376005725828207 2.4271539550294117" fill="#ff4706" stroke="none" /><path d="M 120.6074358757038 95.95851677861258 l 12.620349157985292 -2.475074030446623 a33.860762198472194,33.860762198472194 0 0,0 0.10724876597579902,0.5729271963306724 l -12.66108364787095 2.257468756653388" fill="#ff4b07" stroke="none" /><path d="M 120.67395015179393 96.31383870115 l 8.07980334164912 -1.4406273673694348 a29.207230303295873,29.207230303295873 0 0,0 0.08398906038886522,0.49570818876318906 l -8.103404263558208 1.3013333902904078" fill="#ff0000" stroke="none" /><path d="M 120.96714384426684 98.82574320788733 l 12.762015206998466 -0.7147317321410362 a33.78201367518395,33.78201367518395 0 0,0 0.02751849336138458,0.5808719016199457 l -12.772427308593347 0.4949487238980908" fill="#ff4a06" stroke="none" /><path d="M 120.98425023603335 99.18683210126433 l 13.226233716644781 -0.5125343321098295 a34.23616068839082,34.23616068839082 0 0,0 0.01775113229718249,0.5890736616319189 l -13.23309654339761 0.28479052305291147" fill="#ff5107" stroke="none" /><line stroke="#e1ed5e" stroke-width="0.3" x1="184.98032266829074" x2="189.97916517819016" y1="98.17113171792111" y2="98.06355123074" /><path d="M 185.9800911702706 98.14961562048488 a86.0,86.0 0 0,1 -9.607161424134198,41.387399972396054" fill="none" id="id40" stroke="none" /><text fill="#e1ed5e" style="font-size:6.75px; font-family:Arial;" text-anchor="middle"><textPath startOffset="21.466115282336823" xlink:href="#id40">April</textPath></text><path d="M 120.9904718944345 100.63252640178507 l 12.650044016570465 0.3811961381556944 a33.65578619118208,33.65578619118208 0 0,0 -0.022433772566308418,0.5789159877088946 l -12.641608111152953 -0.5988893728785952" fill="#ff4806" stroke="none" /><path d="M 120.9764740272857 100.99374915477107 l 12.857974576598892 0.6091396175993247 a33.87239532045969,33.87239532045969 0 0,0 -0.03260403398126984,0.5821669288867407 l -12.845584191730092 -0.8303782628214886" fill="#ff4b07" stroke="none" /><path d="M 120.92983693683757 101.71520430193887 l 16.66894176818838 1.3660230949646939 a37.724821038421666,37.724821038421666 0 0,0 -0.058608929369218514,0.6467446517860115 l -16.642958242542083 -1.6527491352992758" fill="#ff870c" stroke="none" /><path d="M 120.81339534386255 102.79330883721812 l 31.268129094148573 4.196410046461606 a52.54846675080081,52.54846675080081 0 0,0 -0.12803296042510928,0.8954622270124275 l -31.191262082706864 -4.734017745454444" fill="#a9ff21" stroke="none" /><path d="M 120.41448212921028 104.9243191809786 l 61.24344638763086 14.772957542935806 a84.0,84.0 0 0,0 -0.35115474281975656,1.4026886424104164 l -60.980080330516046 -15.82497402474362" fill="#4dd2ff" stroke="none" /><path d="M 120.23288151984713 105.62410040840565 l 12.472504239236754 3.4669612490402573 a33.94539231928201,33.94539231928201 0 0,0 -0.16133333796449484,0.5616225143999387 l -12.41097826438616 -3.681141238944778" fill="#ff4d07" stroke="none" /><path d="M 119.67450827220406 107.3425965602758 l 11.829904228595286 4.414962391715467 a33.62689696552556,33.62689696552556 0 0,0 -0.20705476843629544,0.5405546636234047 l -11.752155180565484 -4.617940622172016" fill="#ff4706" stroke="none" /><path d="M 119.12269723197855 108.67885076344098 l 11.947486077385948 5.422375693451961 a34.12038801751952,34.12038801751952 0 0,0 -0.24733281616859693,0.5327328822668806 l -11.85237864437752 -5.627228642997673" fill="#ff4f07" stroke="none" /><line stroke="#e1ed5e" stroke-width="0.3" x1="174.80103733775053" x2="179.2010983576182" y1="140.37084112569926" y2="142.7455964860345" /><path d="M 175.68104954172406 140.8457921977663 a86.0,86.0 0 0,1 -30.038265399797805,32.042727171017184" fill="none" id="id41" stroke="none" /><text fill="#e1ed5e" style="font-size:6.75px; font-family:Arial;" text-anchor="middle"><textPath startOffset="22.206326154141568" xlink:href="#id41">May</textPath></text><path d="M 116.93607887273984 112.41649034213515 l 8.753529382499961 6.417548823083857 a31.853995096136497,31.853995096136497 0 0,0 -0.32800321668044313,0.4394139102630563 l -8.641764899124425 -6.567275612856228" fill="#ff2b04" stroke="none" /><path d="M 116.498646956653 112.99209946851258 l 10.171109458292287 8.009388050695634 a33.94611001649487,33.94611001649487 0 0,0 -0.36545749667356175,0.45596441875922694 l -10.031734049563871 -8.183280303033111" fill="#ff4d07" stroke="none" /><path d="M 116.0416608686014 113.55231037782055 l 23.964186713797957 20.245415917818782 a52.37131030956853,52.37131030956853 0 0,0 -0.5876995980020439,0.6836274048938429 l -23.612144606225133 -20.654920421874156" fill="#acff21" stroke="none" /><path d="M 115.32070863581623 114.36230785411682 l 24.551853826231323 23.0159904103433 a54.653073275313865,54.653073275313865 0 0,0 -0.6493135109141052,0.6808026202722322 l -24.152033763938253 -23.43520014719804" fill="#8fff24" stroke="none" /><path d="M 114.81725581225074 114.88116024355365 l 23.053346743119345 23.15277210446256 a53.672735609062045,53.672735609062045 0 0,0 -0.6603025619391707,0.6462450321245401 l -22.651394228804378 -23.546167239509675" fill="#9bff22" stroke="none" /><line stroke="#e1ed5e" stroke-width="0.3" x1="143.8653032363475" x2="146.44561519142675" y1="172.8068346515853" y2="177.08958963109032" /><path d="M 144.38136562736335 173.6633856474863 a86.0,86.0 0 0,1 -40.68145358897372,12.25698825130547" fill="none" id="id42" stroke="none" /><text fill="#e1ed5e" style="font-size:6.75px; font-family:Arial;" text-anchor="middle"><textPath startOffset="21.466115282336833" xlink:href="#id42">June</textPath></text><path d="M 110.21172684928248 118.3499491758327 l 6.379984653903477 11.464505060664372 a34.120178370359255,34.120178370359255 0 0,0 -0.5156650604630844,0.2811817062197499 l -6.181696781571743 -11.572627418643892" fill="#ff4f07" stroke="none" /><path d="M 107.2578585660854 119.70592522655815 l 4.43620987272788 12.044822759400402 a33.83579811855337,33.83579811855337 0 0,0 -0.5482695357249968,0.196589949015247 l -4.228220776373148 -12.119400249455609" fill="#ff4b07" stroke="none" /><path d="M 103.41894727170886 120.7198165907248 l 2.506848934765264 15.192234925292867 a36.39767169435113,36.39767169435113 0 0,0 -0.6190449036844592,0.09668208265405918 l -2.2449681674722877 -15.233135315294032" fill="#ff730a" stroke="none" /><path d="M 103.06178313531738 120.77559828337769 l 2.768096583934345 18.782800771893598 a39.98567785291417,39.98567785291417 0 0,0 -0.6817965714829776,0.09449079226303257 l -2.444371421264537 -18.82766612964923" fill="#ffa90f" stroke="none" /><path d="M 102.70371172650421 120.8252237178851 l 1.6870979695958714 12.994799817749373 a34.1038590446629,34.1038590446629 0 0,0 -0.5828066561547935,0.07056976967671356 l -1.4631638903896975 -13.021915116151437" fill="#ff4f07" stroke="none" /><line stroke="#e1ed5e" stroke-width="0.3" x1="102.19456741930631" x2="102.32365962044197" y1="184.97166512339345" y2="189.96999836594603" /><path d="M 102.22038585953345 185.97133177190398 a86.0,86.0 0 0,1 -42.740103519485714,-10.115201625700543" fill="none" id="id43" stroke="none" /><text fill="#e1ed5e" style="font-size:6.75px; font-family:Arial;" text-anchor="middle"><textPath startOffset="22.20632615414155" xlink:href="#id43">July</textPath></text><line stroke="#e1ed5e" stroke-width="0.3" x1="58.666819895761336" x2="56.23545636021788" y1="174.27360380694188" y2="178.64263932499728" /><path d="M 58.180547188652646 175.14741091055294 a86.0,86.0 0 0,1 -31.652253787137756,-30.449443065178592" fill="none" id="id44" stroke="none" /><text fill="#e1ed5e" style="font-size:6.75px; font-family:Arial;" text-anchor="middle"><textPath startOffset="22.20632615414155" xlink:href="#id44">August</textPath></text><path d="M 85.97065885151581 115.62618273729859 l -9.49718605506723 10.57817065077492 a35.21598527297631,35.21598527297631 0 0,0 -0.4475791588250471,-0.40885294958724944 l 9.677864763359132 -10.413124934601095" fill="#ff6008" stroke="none" /><path d="M 82.6465618267979 111.8261652097733 l -11.03558353825045 7.520621147637546 a34.35454403849107,34.35454403849107 0 0,0 -0.3288169841317624,-0.49153677680271657 l 11.163403627792942 -7.329547456629009" fill="#ff5307" stroke="none" /><path d="M 82.24976979558568 111.22182372390057 l -11.41180738849224 7.214627044832258 a34.50111814880794,34.50111814880794 0 0,0 -0.3130325227781689,-0.5047080984435364 l 11.534304550938366 -7.017122615023458" fill="#ff5507" stroke="none" /><line stroke="#e1ed5e" stroke-width="0.3" x1="26.63291911575756" x2="22.317208475507996" y1="142.92168965132927" y2="145.44649492493687" /><path d="M 25.769776987707644 143.4266507060508 a86.0,86.0 0 0,1 -11.730757126820373,-40.83630448921669" fill="none" id="id45" stroke="none" /><text fill="#e1ed5e" style="font-size:6.75px; font-family:Arial;" text-anchor="middle"><textPath startOffset="21.46611528233685" xlink:href="#id45">September</textPath></text><path d="M 79.1416061653843 102.43462659150553 l -12.942899251544752 1.510716833656357 a34.03076768218705,34.03076768218705 0 0,0 -0.06290457521785163,-0.5824182416220245 l 12.966986128263656 -1.2877022701495504" fill="#ff4e07" stroke="none" /><path d="M 79.10278846688536 102.07522291339032 l -13.465549209462592 1.3372126810593978 a34.53178307788167,34.53178307788167 0 0,0 -0.05364825543754036,-0.5920040283162419 l 13.486572061177208 -1.1052272641945897" fill="#ff5607" stroke="none" /><line stroke="#e1ed5e" stroke-width="0.3" x1="15.007084014347285" x2="10.007500721073583" y1="101.09737516637583" y2="101.16192664675087" /><path d="M 14.007167355692545 101.11028546245083 a86.0,86.0 0 0,1 10.666146001902534,-42.60595125391555" fill="none" id="id46" stroke="none" /><text fill="#e1ed5e" style="font-size:6.75px; font-family:Arial;" text-anchor="middle"><textPath startOffset="22.20632615414155" xlink:href="#id46">October</textPath></text><path d="M 79.21141760316559 97.0276538004421 l -12.585496539603296 -1.799471079602589 a33.71348965920422,33.71348965920422 0 0,0 0.08708372026699317,-0.5737729108837911 l 12.552656925897 2.0158431028784722" fill="#ff4906" stroke="none" /><path d="M 79.26566170972629 96.67025291283419 l -12.75203768934449 -2.047861849125976 a33.915425017534965,33.915425017534965 0 0,0 0.09752806583616161,-0.5756161653123034 l 12.714897761988105 2.267063802754107" fill="#ff4c07" stroke="none" /><path d="M 79.32604984820605 96.31383870115002 l -12.697926904634457 -2.264037902182324 a33.89818651198523,33.89818651198523 0 0,0 0.10736730174348526,-0.5735604191414705 l 12.657073878981109 2.482276398786367" fill="#ff4c07" stroke="none" /><path d="M 79.3925641242962 95.95851677861259 l -12.991518717110953 -2.547866955997563 a34.23900240208863,34.23900240208863 0 0,0 0.11840287912418421,-0.5773744885361582 l 12.945736542071774 2.771117100697124" fill="#ff5107" stroke="none" /><path d="M 79.54389044137918 95.25157060432595 l -14.485487091620262 -3.362482612805485 a35.87062963034573,35.87062963034573 0 0,0 0.1447929917450406,-0.6002604286561677 l 14.425461299614406 3.6113282731210496" fill="#ff6b09" stroke="none" /><path d="M 79.62865764111835 94.90015583598534 l -12.485312437829753 -3.1256235671776893 a33.87060796364814,33.87060796364814 0 0,0 0.146455973565811,-0.5643546093006477 l 12.429660132393636 3.340074602027201" fill="#ff4b07" stroke="none" /><path d="M 79.71946130924805 94.55025226153421 l -10.28993923354046 -2.7650928765767553 a31.654979495336946,31.654979495336946 0 0,0 0.14593432345710483,-0.5250034070824288 l 10.240818139516994 2.941807587078127" fill="#ff2803" stroke="none" /><path d="M 79.91906864156998 93.8553929516997 l -12.6166561304358 -3.860597539093333 a34.19409812274097,34.19409812274097 0 0,0 0.17706765039714456,-0.5613528398578 l 12.548332996270451 4.077200545377547" fill="#ff5007" stroke="none" /><path d="M 80.38941819471856 92.48833698450439 l -11.814225825743172 -4.525336579664754 a33.65126883047344,33.65126883047344 0 0,0 0.21185308543113285,-0.53914299450157 l 11.734579190430349 4.728028579062087" fill="#ff4806" stroke="none" /><path d="M 80.52162464483688 92.15188598940014 l -12.264698071759328 -4.941621003685873 a34.22279989017025,34.22279989017025 0 0,0 0.22485734280365904,-0.5445098911235003 l 12.177819042069471 5.152005465262685" fill="#ff5107" stroke="none" /><path d="M 80.803312248108 91.48605970444005 l -12.008585223431798 -5.325938461251732 a34.13665633110134,34.13665633110134 0 0,0 0.2428541601183273,-0.5350969502819305 l 11.915128746350119 5.531857420375733" fill="#ff5007" stroke="none" /><path d="M 81.10775173730289 90.83032412892265 l -11.655142736397858 -5.657022903670659 a33.955472215958096,33.955472215958096 0 0,0 0.25974317223486953,-0.5236263854822832 l 11.556039551209576 5.856808877651903" fill="#ff4d07" stroke="none" /><path d="M 81.26839172434947 90.50648371742162 l -11.762016767754925 -5.961201839021663 a34.18639320703365,34.18639320703365 0 0,0 0.2705455269184833,-0.5226078450948463 l 11.657661807676327 6.162782406376844" fill="#ff5007" stroke="none" /><path d="M 81.43458229118936 90.18545643968196 l -12.859255861580378 -6.798000927652763 a35.545558701059136,35.545558701059136 0 0,0 0.2906135494155348,-0.5384627705180381 l 12.74033421294637 7.018344681503273" fill="#ff6609" stroke="none" /><path d="M 81.6062741919709 89.86733742301443 l -11.614452030412815 -6.398123179012855 a34.260146159849896,34.260146159849896 0 0,0 0.2889963381153278,-0.5140922384291985 l 11.502598051005057 6.597098927376838" fill="#ff5107" stroke="none" /><line stroke="#e1ed5e" stroke-width="0.3" x1="26.266209847984243" x2="21.928928074336255" y1="57.711370442889674" y2="55.22380399835377" /><path d="M 25.398753493254645 57.213857153982495 a86.0,86.0 0 0,1 29.58750427330803,-30.492523968695096" fill="none" id="id47" stroke="none" /><text fill="#e1ed5e" style="font-size:6.75px; font-family:Arial;" text-anchor="middle"><textPath startOffset="21.46611528233685" xlink:href="#id47">November</textPath></text><line stroke="#e1ed5e" stroke-width="0.3" x1="56.762969772571076" x2="54.21961505331055" y1="26.818313649435495" y2="22.513508569990535" /><path d="M 56.25429882871897 25.957352633546506 a86.0,86.0 0 0,1 42.265352541879196,-11.944610805530505" fill="none" id="id48" stroke="none" /><text fill="#e1ed5e" style="font-size:6.75px; font-family:Arial;" text-anchor="middle"><textPath startOffset="22.20632615414155" xlink:href="#id48">December</textPath></text></svg>