<?xml version="1.0" encoding="utf-8" ?>
<svg baseProfile="full" height="200mm" version="1.1" viewBox="0,0,200,200" width="200mm" xmlns="http://www.w3.org/2000/svg" xmlns:ev="http://www.w3.org/2001/xml-events" xmlns:xlink="http://www.w3.org/1999/xlink"><defs /><rect fill="#1a1a1a" height="200" width="200" x="0" y="0" /><text alignment-baseline="middle" fill="#e1ed5e" style="dominant-baseline: central; font-size:9.0px; font-family:Arial;" text-anchor="middle" x="100.0" y="100.0">2024</text><line stroke="#e1ed5e" stroke-width="0.3" x1="100.0" x2="100.0" y1="15.0" y2="10.0" /><path d="M 100.0 14.0 a86.0,86.0 0 0,1 42.35913384403234,11.155469271406648" fill="none" id="id49" stroke="none" /><text fill="#e1ed5e" style="font-size:6.75px; font-family:Arial;" text-anchor="middle"><textPath startOffset="22.145653131862478" xlink:href="#id49">January</textPath></text><path d="M 107.06938296918511 80.22567764915836 l 4.184568521686318 -11.704982911195764 a33.430496316079775,33.430496316079775 0 0,0 0.5387258389975341,0.19782759021029925 l -4.384883512337977 11.631424471976741" fill="#ff4e07" stroke="none" /><path d="M 108.73861861582097 80.90454125486305 l 5.479057949950256 -11.972730433168193 a34.166865611990765,34.166865611990765 0 0,0 0.5312317730452644,0.2486432932498846 l -5.683778436867025 11.876910908347776" fill="#ff5a08" stroke="none" /><line stroke="#e1ed5e" stroke-width="0.3" x1="143.13028292997686" x2="145.6673583964461" y1="26.7553504044142" y2="22.446841604673864" /><path d="M 143.63769802327073 25.89364864446614 a86.0,86.0 0 0,1 29.32050498858742,28.57503671076993" fill="none" id="id50" stroke="none" /><text fill="#e1ed5e" style="font-size:6.75px; font-family:Arial;" text-anchor="middle"><textPath startOffset="20.669276256404974" xlink:href="#id50">February</textPath></text><path d="M 111.5731344415666 82.4767994020092 l 11.631860726891741 -17.612119678929766 a42.10656162321925,42.10656162321925 0 0,0 0.599725184617964,0.403521869095566 l -11.932482199606707 17.409848135777082" fill="#ffcf13" stroke="none" /><path d="M 115.41159269507618 85.73525988315684 l 26.965920268278378 -24.959253222504344 a57.74404955010049,57.74404955010049 0 0,0 0.6670875801692823,0.7332461071498919 l -27.390405549289536 24.49266953979678" fill="#66ff29" stroke="none" /><path d="M 117.21940702142032 87.97951657250589 l 10.051918706519597 -7.017019928498703 a33.258859586414495,33.258859586414495 0 0,0 0.3227855678823471,0.47095379010391414 l -10.17089401121727 6.84343140332474" fill="#ff4c07" stroke="none" /><path d="M 117.42321728460499 88.27688183743584 l 10.172442672353956 -6.844473411652053 a33.26072616956841,33.26072616956841 0 0,0 0.314671115887769,0.47645217585051536 l -10.288438227162448 6.668841357462479" fill="#ff4c07" stroke="none" /><path d="M 117.62189284568427 88.57770195909679 l 10.52954560018492 -6.825124243679005 a33.54805369322384,33.54805369322384 0 0,0 0.3090930890487399,0.4859456749821128 l -10.64515638085955 6.6433648940182195" fill="#ff5007" stroke="none" /><path d="M 117.81537515405839 88.88188828441811 l 10.76915002835667 -6.7207461005869416 a33.69421208589998,33.69421208589998 0 0,0 0.3020157203333494,0.4933199818019852 l -10.882933713145421 6.534889002660401" fill="#ff5307" stroke="none" /><line stroke="#e1ed5e" stroke-width="0.3" x1="172.87174338648825" x2="177.1583165268699" y1="56.24261187166439" y2="53.66864786411523" /><path d="M 173.72905801456457 55.72781907015455 a86.0,86.0 0 0,1 12.242430191666344,42.057860355516425" fill="none" id="id51" stroke="none" /><text fill="#e1ed5e" style="font-size:6.75px; font-family:Arial;" text-anchor="middle"><textPath startOffset="22.145653131862474" xlink:href="#id51">March</textPath></text><path d="M 118.00360718960297 89.18935116829356 l 10.535099379140664 -6.3260244791827125 a33.288486670033414,33.288486670033414 0 0,0 0.28996854104494746,0.4924299758724476 l -10.642141630315379 6.144243335016709" fill="#ff4c07" stroke="none" /><path d="M 118.18653347947321 89.5 l 11.163448022778637 -6.4452197210356434 a33.89043944207128,33.89043944207128 0 0,0 0.28656244236549683,0.5063283777769375 l -11.272443830165509 6.252634573159588" fill="#ff5607" stroke="none" /><path d="M 118.36410011445183 89.81374322990088 l 10.754788546488774 -5.965499913412219 a33.298482259880984,33.298482259880984 0 0,0 0.2729756462756939,0.5022444432594747 l -10.855609542379808 5.780000636678142" fill="#ff4c07" stroke="none" /><path d="M 118.53625476483649 90.13048839642627 l 11.231012175935293 -5.979881394409012 a33.72378151286817,33.72378151286817 0 0,0 0.2676896315165267,0.5133301646338753 l -11.332009876426763 5.786204986670638" fill="#ff5307" stroke="none" /><path d="M 118.70294669586156 90.45014215332178 l 6.683479578787515 -3.4126322946063157 a28.50432931435313,28.50432931435313 0 0,0 0.2187776320346984,0.4377018173950785 l -6.74107712403395 3.2973986210474866" fill="#ff0000" stroke="none" /><path d="M 119.0197475246899 91.09779779509293 l 12.526210417986574 -5.862898961060113 a34.83038436426389,34.83038436426389 0 0,0 0.24881422617663324,0.5437039880144331 l -12.62500910901826 5.647005990830995" fill="#ff6409" stroke="none" /><path d="M 119.16976305983485 91.42560881287824 l 11.208099416390544 -5.01324030768232 a33.27819493697118,33.27819493697118 0 0,0 0.22877351507300203,0.5234785731940415 l -11.292506813480516 4.820099664712429" fill="#ff4c07" stroke="none" /><path d="M 119.71291397450082 92.76114493625339 l 11.741907386436909 -4.311791034663857 a33.508554312880015,33.508554312880015 0 0,0 0.19364725968973387,0.5416658500682968 l -11.814194816170586 4.1095902282146435" fill="#ff5007" stroke="none" /><path d="M 119.83427380445688 93.10060997987247 l 11.671980913448966 -4.060120850568941 a33.35798202641279,33.35798202641279 0 0,0 0.1834920586179857,0.5424616669019515 l -11.739958393639316 3.8591575091928285" fill="#ff4d07" stroke="none" /><path d="M 119.94978838288452 93.4421083053983 l 12.09267460642594 -3.9751023341699803 a33.72926618874876,33.72926618874876 0 0,0 0.17609131834419142,0.5516035466705912 l -12.159130640547389 3.766929753808002" fill="#ff5307" stroke="none" /><path d="M 120.05942366710727 93.78553927170692 l 10.318738286277558 -3.1967714980145034 a31.802578758389508,31.802578758389508 0 0,0 0.1570800239140301,0.5228683121007769 l -10.372094630195214 3.0191655823230032" fill="#ff3505" stroke="none" /><path d="M 120.16314734710363 94.1308016681162 l 12.138755724340395 -3.5334148792340008 a33.6425634759727,33.6425634759727 0 0,0 0.15664859938843814,0.5558906164644014 l -12.197622815803415 3.3245163388665864" fill="#ff5207" stroke="none" /><path d="M 120.26092885502905 94.47779374421319 l 29.832837387651388 -8.131072490739614 a51.92106929664162,51.92106929664162 0 0,0 0.2269952537761069,0.861937951934294 l -29.968022122232224 7.6177540344325205" fill="#acff20" stroke="none" /><path d="M 120.43855184770803 95.1765574152323 l 12.21868691060805 -2.8835768411439426 a33.55433491739989,33.55433491739989 0 0,0 0.12748911781261182,0.5617405764032705 l -12.266386889978328 2.673401930801646" fill="#ff5007" stroke="none" /><path d="M 120.51834098615036 95.52812308129327 l 12.34410231068548 -2.6903396450311967 a33.63387467336514,33.63387467336514 0 0,0 0.11810661486953798,0.5651829072266215 l -12.388466636379384 2.478040286519171" fill="#ff5207" stroke="none" /><path d="M 120.592083275326 95.88100663000786 l 12.700794319572466 -2.5405145704047065 a33.95238937920424,33.95238937920424 0 0,0 0.10941352738907942,0.5724978090555408 l -12.742534139243702 2.322114196315851" fill="#ff5708" stroke="none" /><path d="M 120.7213421655516 96.59031103205396 l 11.858371172173728 -1.9512904637417248 a33.01784095962874,33.01784095962874 0 0,0 0.08722764520267964,0.5600640550918039 l -11.890120309514671 1.7474382267184796" fill="#ff4806" stroke="none" /><path d="M 120.77682067341334 96.94652285012252 l 12.641603938664545 -1.8578804414434897 a33.777396834909574,33.777396834909574 0 0,0 0.07938570239492361,0.5743953965862681 l -12.671634157614681 1.640596736657136" fill="#ff5407" stroke="none" /><path d="M 120.82617615685814 97.30363454192243 l 13.481547013376147 -1.7454561708557195 a34.59406955691524,34.59406955691524 0 0,0 0.07119445304942658,0.5895922016843442 l -13.509523552685238 1.5137702922479623" fill="#ff6008" stroke="none" /><path d="M 120.86939407059847 97.66154086499901 l 12.683152570794263 -1.4211737000821572 a33.76252693708618,33.76252693708618 0 0,0 0.059595052253861316,0.5765280702828484 l -12.70568001552979 1.2032411075163774" fill="#ff5407" stroke="none" /><path d="M 120.93736805541906 98.37931529534042 l 20.705280918983004 -1.6027196924777902 a41.76721859919276,41.76721859919276 0 0,0 0.049197882918895534,0.7153264201896703 l -20.729742763066962 1.2470498481337857" fill="#ffca12" stroke="none" /><line stroke="#e1ed5e" stroke-width="0.3" x1="184.99686870605535" x2="189.99668451229388" y1="99.2704041080226" y2="99.22748670261217" /><path d="M 185.99683186730306 99.26182062694052 a86.0,86.0 0 0,1 -10.086455211305974,41.156179273409016" fill="none" id="id52" stroke="none" /><text fill="#e1ed5e" style="font-size:6.75px; font-family:Arial;" text-anchor="middle"><textPath startOffset="21.40746469413373" xlink:href="#id52">April</textPath></text><line stroke="#e1ed5e" stroke-width="0.3" x1="174.33088141563837" x2="178.70328620479359" y1="141.23008692659167" y2="143.65538615756765" /><path d="M 175.20536237346943 141.71514677278685 a86.0,86.0 0 0,1 -30.301960400862466,31.631185727798858" fill="none" id="id53" stroke="none" /><text fill="#e1ed5e" style="font-size:6.75px; font-family:Arial;" text-anchor="middle"><textPath startOffset="22.145653131862474" xlink:href="#id53">May</textPath></text><path d="M 116.57777611688842 112.89097897827486 l 14.593824758410106 11.348246402099608 a39.486817397322625,39.486817397322625 0 0,0 -0.42069174280513677,0.5315302741193254 l -14.396866584963407 -11.597096620133618" fill="#ffaa0f" stroke="none" /><path d="M 116.35404254752997 113.17365903436017 l 16.847134610748462 13.570859096333264 a42.6331727031707,42.6331727031707 0 0,0 -0.4639974870123134,0.5660014892189565 l -16.611690304497518 -13.858062867250712" fill="#ffd714" stroke="none" /><path d="M 116.1254893667686 113.45245675266167 l 20.19519469470566 16.847549681312497 a47.29992051359396,47.29992051359396 0 0,0 -0.5254918381668013,0.6190280640300593 l -19.903008293031743 -17.191744527792114" fill="#e8ff1a" stroke="none" /><path d="M 115.41159269507618 114.26474011684316 l 13.543615562685579 12.53576837038174 a39.454674506630624,39.454674506630624 0 0,0 -0.4643329826737364,0.49310553663692097 l -13.326426746275583 -12.766415366963159" fill="#ffa90f" stroke="none" /><path d="M 114.91283532996324 114.78537596483092 l 17.923646607548687 17.77045396732257 a46.23977301635302,46.23977301635302 0 0,0 -0.5637026430258476,0.5588847006685583 l -17.615952044392873 -18.07551867821979" fill="#f6ff19" stroke="none" /><path d="M 112.7482090630111 116.68781488649013 l 18.810999495972 24.624202181423414 a51.98717533285466,51.98717533285466 0 0,0 -0.713826029628599,0.5356683603961573 l -18.38552047743263 -24.94348956908359" fill="#abff21" stroke="none" /><path d="M 111.8722381534696 117.32195027204791 l 18.371838863087586 26.80506195030106 a53.496704592477265,53.496704592477265 0 0,0 -0.7619553770565732,0.512677582671712 l -17.908987197934007 -27.116489207029893" fill="#99ff23" stroke="none" /><line stroke="#e1ed5e" stroke-width="0.3" x1="143.1302829299769" x2="145.66735839644613" y1="173.24464959558577" y2="177.55315839532614" /><path d="M 143.63769802327073 174.10635135553383 a86.0,86.0 0 0,1 -40.68552437913181,11.842963189579606" fill="none" id="id54" stroke="none" /><text fill="#e1ed5e" style="font-size:6.75px; font-family:Arial;" text-anchor="middle"><textPath startOffset="21.407464694133747" xlink:href="#id54">June</textPath></text><path d="M 109.3889696526874 118.78422872680471 l 8.238664833724828 16.482848530229703 a39.427150998267464,39.427150998267464 0 0,0 -0.6080037500755089,0.29740510161838385 l -7.954500834387249 -16.621847381945308" fill="#ffa90f" stroke="none" /><path d="M 108.73861861582097 119.09545874513695 l 15.424156970816231 33.70456659837506 a58.066189820976724,58.066189820976724 0 0,0 -0.9099430865392601,0.4070059686002098 l -14.843300481421343 -33.96437631788512" fill="#62ff29" stroke="none" /><path d="M 108.07796709384702 119.3841803445677 l 14.168210928662669 33.99854847270476 a57.83258746232651,57.83258746232651 0 0,0 -0.9196635514694086,0.3740191601131736 l -13.582492916002819 -34.236754889397226" fill="#65ff29" stroke="none" /><path d="M 107.74402155503746 119.51999308798841 l 9.119453846515038 22.986980961385196 a45.729855077978186,45.729855077978186 0 0,0 -0.732173605207971,0.28322047937490646 l -8.723507978813538 -23.140141328898146" fill="#fdff18" stroke="none" /><path d="M 107.06938296918513 119.77432235084164 l 12.4387149104404 34.79329940695249 a57.94990273661154,57.94990273661154 0 0,0 -0.9396003520175535,0.3268417767915238 l -11.839608786377823 -35.00169961631261" fill="#64ff29" stroke="none" /><path d="M 105.69591212413111 120.21278271476187 l 8.527159708752034 30.259881580137527 a52.43839827253466,52.43839827253466 0 0,0 -0.8685262011610243,0.2367206782909029 l -8.006452106656315 -30.40180275257257" fill="#a6ff21" stroke="none" /><line stroke="#e1ed5e" stroke-width="0.3" x1="101.45913802915013" x2="101.54496967792366" y1="184.9874750549273" y2="189.98673829345242" /><path d="M 101.47630435890484 185.9873277026323 a86.0,86.0 0 0,1 -42.54439059252881,-10.42667462771756" fill="none" id="id55" stroke="none" /><text fill="#e1ed5e" style="font-size:6.75px; font-family:Arial;" text-anchor="middle"><textPath startOffset="22.145653131862474" xlink:href="#id55">July</textPath></text><path d="M 92.59220618246901 119.65005319985036 l -6.54769963630226 17.368551198805292 a39.561760187890414,39.561760187890414 0 0,0 -0.6334171961784764,-0.24501937883300193 l 6.844889094974265 -17.25359193183425" fill="#ffab0f" stroke="none" /><path d="M 92.25597844496254 119.51999308798841 l -6.789783832704488 17.114690673492827 a39.412327428768954,39.412327428768954 0 0,0 -0.6267414723304292,-0.25489030060458845 l 7.082579766225359 -16.995613116308945" fill="#ffa80f" stroke="none" /><path d="M 91.59046798132341 119.24265499422711 l -8.07606913166685 18.47962665045523 a41.167287714506315,41.167287714506315 0 0,0 -0.6451239346490429,-0.28855573032334003 l 8.392106469171528 -18.338267169222036" fill="#ffc212" stroke="none" /><line stroke="#e1ed5e" stroke-width="0.3" x1="58.13341422392154" x2="55.67067388415222" y1="173.97424548756322" y2="178.32567169271397" /><path d="M 57.64086615596768 174.84453072859336 a86.0,86.0 0 0,1 -31.369924170532247,-30.572349798747897" fill="none" id="id56" stroke="none" /><text fill="#e1ed5e" style="font-size:6.75px; font-family:Arial;" text-anchor="middle"><textPath startOffset="22.145653131862474" xlink:href="#id56">August</textPath></text><path d="M 89.65649057296885 118.27599006163327 l -9.082259735962415 16.04748270812604 a39.43933684217218,39.43933684217218 0 0,0 -0.5863456202246187,-0.3385268016748443 l 9.356397824047434 -15.889209009175024" fill="#ffa90f" stroke="none" /><path d="M 89.03521579738668 117.91015095944536 l -9.721024486746487 15.878562935748299 a39.61792356780005,39.61792356780005 0 0,0 -0.576980103328605,-0.3600782577409821 l 9.992168718864804 -15.70934888116577" fill="#ffab0f" stroke="none" /><path d="M 85.08716467003676 114.78537596483092 l -13.107045746959832 12.995020388085845 a39.45711795215235,39.45711795215235 0 0,0 -0.4727586507290893,-0.4850920234120213 l 13.32819119883973 -12.768105672606087" fill="#ffa90f" stroke="none" /><path d="M 83.8745106332314 113.45245675266167 l -18.869527331507317 15.741630817938844 a45.573522387374254,45.573522387374254 0 0,0 -0.49599873810161405,-0.6050378122172614 l 19.136972888847563 -15.415390724023089" fill="#ffff18" stroke="none" /><line stroke="#e1ed5e" stroke-width="0.3" x1="26.387840678322732" x2="22.057713659400548" y1="142.50000000000003" y2="145.00000000000006" /><path d="M 25.521815274538298 143.00000000000003 a86.0,86.0 0 0,1 -11.493303480769221,-40.785679425670985" fill="none" id="id57" stroke="none" /><text fill="#e1ed5e" style="font-size:6.75px; font-family:Arial;" text-anchor="middle"><textPath startOffset="21.40746469413373" xlink:href="#id57">September</textPath></text><path d="M 81.63589988554817 110.18625677009913 l -16.17813038576078 8.973736210456364 a39.50026606169576,39.50026606169576 0 0,0 -0.323816880664414,-0.5957865881671401 l 16.329792616040525 -8.694694788814637" fill="#ffaa0f" stroke="none" /><path d="M 79.56144815229197 104.8234425847677 l -24.513845966146743 5.78520090026866 a46.187242673791,46.187242673791 0 0,0 -0.1754876333318461,-0.7732308921014839 l 24.609544461036258 -5.36353567422815" fill="#f7ff19" stroke="none" /><path d="M 79.48165901384964 104.47187691870673 l -18.030071055893032 3.929570068648018 a39.45331902951244,39.45331902951244 0 0,0 -0.13854181241965802,-0.6629727251287262 l 18.094870579137055 -3.6194808922338826" fill="#ffa90f" stroke="none" /><path d="M 79.34024301695615 103.76489593502545 l -24.22765127104844 4.415085127111971 a45.62665350369758,45.62665350369758 0 0,0 -0.13380598967827628,-0.7717573909062587 l 24.29987207821895 -3.9985347032851193" fill="#feff18" stroke="none" /><path d="M 79.0935383218832 101.97986365728391 l -24.412542670756437 2.3118931725455503 a45.5217676706384,45.5217676706384 0 0,0 -0.06699585367116835,-0.7785933730261119 l 24.448632147125345 -1.8924787521437765" fill="#fffe18" stroke="none" /><path d="M 79.03789590574601 101.26102812881392 l -36.76288644563534 2.211563958269139 a57.82934746850931,57.82934746850931 0 0,0 -0.05110575103710027,-0.9914379171086334 l 36.79543378612901 -1.580154247783775" fill="#65ff29" stroke="none" /><path d="M 79.01933749520258 100.90099992219065 l -37.535102589766076 1.611918808810933 a58.56969801143553,58.56969801143553 0 0,0 -0.03451515930436172,-1.0048712038043592 l 37.557242436067284 -0.9673413404424539" fill="#5cff2a" stroke="none" /><path d="M 79.00696218219943 100.54070618675478 l -30.65179402335597 0.7894814846428848 a51.66195945899144,51.66195945899144 0 0,0 -0.015224455707567195,-0.8867482197178691 l 30.6608299106622 -0.2631863489559634" fill="#afff20" stroke="none" /><line stroke="#e1ed5e" stroke-width="0.3" x1="15.003131293944662" x2="10.003315487706104" y1="100.72959589197737" y2="100.7725132973878" /><path d="M 14.003168132696942 100.73817937305945 a86.0,86.0 0 0,1 10.791469493833604,-42.45332614584628" fill="none" id="id58" stroke="none" /><text fill="#e1ed5e" style="font-size:6.75px; font-family:Arial;" text-anchor="middle"><textPath startOffset="22.145653131862435" xlink:href="#id58">October</textPath></text><path d="M 79.00077361379809 100.18025310272382 l -30.93713381685858 0.2655580856795283 a51.93827354425396,51.93827354425396 0 0,0 0.0,-0.8916223768066804 l 30.93713381685858 0.26555808567951694" fill="#acff21" stroke="none" /><path d="M 79.00696218219943 99.45929381324524 l -19.166590906163297 -0.4936633931642113 a40.172947361059855,40.172947361059855 0 0,0 0.02367394275486504,-0.6892410127706899 l 19.155292276411583 0.8226106704990398" fill="#ffb410" stroke="none" /><path d="M 79.01933749520258 99.09900007780938 l -62.941987514392274 -2.7029997665718684 a84.0,84.0 0 0,0 0.07423364217371864,-1.440112826493152 l 62.886312282761985 3.7830843864417325" fill="#4dd2ff" stroke="none" /><path d="M 79.03789590574601 98.7389718711861 l -24.549867113324556 -1.4768590428396866 a45.59424908213934,45.59424908213934 0 0,0 0.053705767425978816,-0.7808700715779546 l 24.520897384733512 1.8980725385719661" fill="#ffff18" stroke="none" /><path d="M 79.06263194458094 98.37931529534042 l -24.494330597381882 -1.8960161012108439 a45.56760282302466,45.56760282302466 0 0,0 0.06706331074322787,-0.7793773264559511 l 24.45817366394091 2.3162144750424756" fill="#ffff18" stroke="none" /><path d="M 79.0935383218832 98.0201363427161 l -24.927412625155586 -2.360651892535414 a46.03894122247379,46.03894122247379 0 0,0 0.08126444779973385,-0.7861598152981851 l 24.88321578487419 2.788216230116512" fill="#f9ff18" stroke="none" /><path d="M 79.22317932658666 96.9465228501225 l -37.72625040879242 -5.544459635309486 a59.13149620136202,59.13149620136202 0 0,0 0.15621557985158413,-1.0030160841428917 l 37.62551333680256 6.191263901383827" fill="#56ff2a" stroke="none" /><path d="M 80.16572619554312 93.10060997987247 l -17.391927445302823 -6.0498151749796305 a39.414108827583576,39.414108827583576 0 0,0 0.22777569262785993,-0.6371291510648937 l 17.28551158263102 6.347479282425446" fill="#ffa90f" stroke="none" /><path d="M 80.41425534168474 92.42381321644754 l -34.684267080716374 -13.416619609740705 a58.18876261290424,58.18876261290424 0 0,0 0.36836624780193916,-0.9285235791040245 l 34.4488421579483 14.010044206058312" fill="#61ff29" stroke="none" /><path d="M 80.9802524753101 91.09779779509293 l -33.3073819720762 -15.589536551239423 a57.775200117962875,57.775200117962875 0 0,0 0.42814378637487466,-0.8946558461452012 l 33.03485892774142 16.159004899449712" fill="#66ff29" stroke="none" /><line stroke="#e1ed5e" stroke-width="0.3" x1="26.387840678322718" x2="22.05771365940052" y1="57.49999999999999" y2="54.99999999999999" /><path d="M 25.521815274538284 56.99999999999999 a86.0,86.0 0 0,1 29.574782752854787,-30.34633250058573" fill="none" id="id59" stroke="none" /><text fill="#e1ed5e" style="font-size:6.75px; font-family:Arial;" text-anchor="middle"><textPath startOffset="21.40746469413373" xlink:href="#id59">November</textPath></text><line stroke="#e1ed5e" stroke-width="0.3" x1="56.869717070023135" x2="54.33264160355391" y1="26.7553504044142" y2="22.446841604673864" /><path d="M 56.362301976729285 25.89364864446614 a86.0,86.0 0 0,1 42.16139366436587,-11.88097634709845" fill="none" id="id60" stroke="none" /><text fill="#e1ed5e" style="font-size:6.75px; font-family:Arial;" text-anchor="middle"><textPath startOffset="22.145653131862474" xlink:href="#id60">December</textPath></text></svg>