<?xml version="1.0" encoding="utf-8" ?>
<svg baseProfile="full" height="200mm" version="1.1" viewBox="0,0,200,200" width="200mm" xmlns="http://www.w3.org/2000/svg" xmlns:ev="http://www.w3.org/2001/xml-events" xmlns:xlink="http://www.w3.org/1999/xlink"><defs /><rect fill="#1a1a1a" height="200" width="200" x="0" y="0" /><text alignment-baseline="middle" fill="#e1ed5e" style="dominant-baseline: central; font-size:9.0px; font-family:Arial;" text-anchor="middle" x="100.0" y="100.0">2025</text><line stroke="#e1ed5e" stroke-width="0.3" x1="100.0" x2="100.0" y1="15.0" y2="10.0" /><path d="M 100.0 14.0 a86.0,86.0 0 0,1 42.46469731375804,11.215312516191453" fill="none" id="id61" stroke="none" /><text fill="#e1ed5e" style="font-size:6.75px; font-family:Arial;" text-anchor="middle"><textPath startOffset="22.20632615414155" xlink:href="#id61">January</textPath></text><path d="M 100.36148047927253 79.00311137660856 l 0.6320261960086636 -36.71175735787017 a57.717197406877006,57.717197406877006 0 0,0 0.9932122778116759,0.025651742874230672 l -1.2638651090152073 36.695438822853575" fill="#ffee16" stroke="none" /><path d="M 101.08401301168833 79.027996857942 l 2.739761756324116 -53.00516833523015 a74.07592829831148,74.07592829831148 0 0,0 1.2728288665460252,0.07678051317491695 l -3.6517526717097533 52.95015455267494" fill="#38ff83" stroke="none" /><path d="M 108.09893153111575 80.62456947434976 l 12.909205403251367 -30.883260522834373 a54.472725683227445,54.472725683227445 0 0,0 0.8620081667604346,0.36906691063633373 l -13.438897327802115 30.656474084235246" fill="#ffa90f" stroke="none" /><path d="M 110.36928655335952 81.73862282372117 l 14.551866278956393 -25.627329071420085 a50.47060921554696,50.47060921554696 0 0,0 0.7517795941470763,0.43547926494516964 l -14.990842605568798 25.373045649084865" fill="#ff4e07" stroke="none" /><line stroke="#e1ed5e" stroke-width="0.3" x1="143.23703022742887" x2="145.7803849466894" y1="26.81831364943548" y2="22.513508569990506" /><path d="M 143.74570117128098 25.957352633546492 a86.0,86.0 0 0,1 28.547481713284135,27.462654790039103" fill="none" id="id62" stroke="none" /><text fill="#e1ed5e" style="font-size:6.75px; font-family:Arial;" text-anchor="middle"><textPath startOffset="19.985693538727396" xlink:href="#id62">February</textPath></text><path d="M 112.48926042617603 83.11751280151076 l 19.08593228327071 -25.79960673797939 a53.09193853533916,53.09193853533916 0 0,0 0.7300238788810812,0.5498388505910232 l -19.527202315910177 25.46725129788252" fill="#ff8a0c" stroke="none" /><path d="M 113.34407831869373 83.78471172551755 l 18.965192514040083 -23.045882709291583 a50.846125995596594,50.846125995596594 0 0,0 0.6710295521193662,0.561967952123143 l -19.359079603118566 22.716013599774623" fill="#ff5708" stroke="none" /><path d="M 113.6212207817346 84.01681056812373 l 18.78850253212819 -22.04649641352115 a49.96646045879939,49.96646045879939 0 0,0 0.6498166767128267,0.5635146186454995 l -19.165213007487782 21.71981680145598" fill="#ff4206" stroke="none" /><path d="M 113.89432698308785 84.25364557470407 l 18.810062056705558 -21.3173264359777 a49.42968239279412,49.42968239279412 0 0,0 0.6331448309657891,0.5684436806704088 l -19.17421787526734 20.990383746537997" fill="#ff3505" stroke="none" /><path d="M 115.9244219780498 86.31012108654704 l 23.07093354785252 -19.833579336554358 a51.42431337054006,51.42431337054006 0 0,0 0.5712736437171203,0.6762078051782339 l -23.408917805056756 19.433512581747017" fill="#ff6409" stroke="none" /><path d="M 116.60985879189232 87.15038557335679 l 20.992021113724807 -16.239715263502635 a47.540408856660605,47.540408856660605 0 0,0 0.4951538680254437,0.6515644490374795 l -21.268450921974367 15.875966038584123" fill="#ff0801" stroke="none" /><path d="M 117.04232023915458 87.72973835380427 l 22.757937728056934 -16.385436169044816 a49.04293579645254,49.04293579645254 0 0,0 0.48736389468990726,0.6893416663353368 l -23.036614242550723 15.991268002377685" fill="#ff2c04" stroke="none" /><path d="M 117.2510076193507 88.02491185347247 l 21.549533404721952 -14.95898487393966 a47.232682257443344,47.232682257443344 0 0,0 0.45787707278371265,0.6718781052468703 l -21.803834943174397 14.585828745422383" fill="#ff0000" stroke="none" /><path d="M 117.65298651832404 88.62581576622439 l 31.68756492634138 -20.41695330236683 a58.69554022841599,58.69554022841599 0 0,0 0.5399218378840631,0.8540266850227594 l -32.0343143604714 19.868478969629866" fill="#fcff18" stroke="none" /><line stroke="#e1ed5e" stroke-width="0.3" x1="172.23445277983987" x2="176.4835382374775" y1="55.19839476539836" y2="52.563006222186495" /><path d="M 173.08426987136738 54.67131705675599 a86.0,86.0 0 0,1 12.851231095245387,41.99856678651699" fill="none" id="id63" stroke="none" /><text fill="#e1ed5e" style="font-size:6.75px; font-family:Arial;" text-anchor="middle"><textPath startOffset="22.20632615414155" xlink:href="#id63">March</textPath></text><path d="M 117.84615892207809 88.93136811851018 l 32.095651055321945 -19.90652151419603 a58.76771657725865,58.76771657725865 0 0,0 0.5257869293171279,0.8642554654328526 l -32.4335537829253 19.351098275556094" fill="#faff18" stroke="none" /><path d="M 118.3937258080291 89.86733742301442 l 55.1811774240873 -30.397987730956764 a84.0,84.0 0 0,0 0.6867676031261407,1.272476066670165 l -55.696253126431905 29.44363068095414" fill="#4dd2ff" stroke="none" /><path d="M 118.89224826269711 90.83032412892265 l 28.70592781458002 -13.9329131174917 a52.9085624814947,52.9085624814947 0 0,0 0.3906209089698682,0.822747255042307 l -28.941506917391646 13.436723446808852" fill="#ff860c" stroke="none" /><path d="M 119.196687751892 91.48605970444005 l 28.76945897675938 -12.759568693799755 a52.47202508684873,52.47202508684873 0 0,0 0.35908178468324187,0.8288102669800459 l -28.984831471285304 12.262459282233108" fill="#ff7c0b" stroke="none" /><line stroke="#e1ed5e" stroke-width="0.3" x1="184.98032266829074" x2="189.97916517819016" y1="98.17113171792111" y2="98.06355123074" /><path d="M 185.9800911702706 98.14961562048488 a86.0,86.0 0 0,1 -9.607161424134198,41.387399972396054" fill="none" id="id64" stroke="none" /><text fill="#e1ed5e" style="font-size:6.75px; font-family:Arial;" text-anchor="middle"><textPath startOffset="21.466115282336823" xlink:href="#id64">April</textPath></text><line stroke="#e1ed5e" stroke-width="0.3" x1="174.80103733775053" x2="179.2010983576182" y1="140.37084112569926" y2="142.7455964860345" /><path d="M 175.68104954172406 140.8457921977663 a86.0,86.0 0 0,1 -30.038265399797805,32.042727171017184" fill="none" id="id65" stroke="none" /><text fill="#e1ed5e" style="font-size:6.75px; font-family:Arial;" text-anchor="middle"><textPath startOffset="22.206326154141568" xlink:href="#id65">May</textPath></text><line stroke="#e1ed5e" stroke-width="0.3" x1="143.8653032363475" x2="146.44561519142675" y1="172.8068346515853" y2="177.08958963109032" /><path d="M 144.38136562736335 173.6633856474863 a86.0,86.0 0 0,1 -40.68145358897372,12.25698825130547" fill="none" id="id66" stroke="none" /><text fill="#e1ed5e" style="font-size:6.75px; font-family:Arial;" text-anchor="middle"><textPath startOffset="21.466115282336833" xlink:href="#id66">June</textPath></text><line stroke="#e1ed5e" stroke-width="0.3" x1="102.19456741930631" x2="102.32365962044197" y1="184.97166512339345" y2="189.96999836594603" /><path d="M 102.22038585953345 185.97133177190398 a86.0,86.0 0 0,1 -42.740103519485714,-10.115201625700543" fill="none" id="id67" stroke="none" /><text fill="#e1ed5e" style="font-size:6.75px; font-family:Arial;" text-anchor="middle"><textPath startOffset="22.20632615414155" xlink:href="#id67">July</textPath></text><line stroke="#e1ed5e" stroke-width="0.3" x1="58.666819895761336" x2="56.23545636021788" y1="174.27360380694188" y2="178.64263932499728" /><path d="M 58.180547188652646 175.14741091055294 a86.0,86.0 0 0,1 -31.652253787137756,-30.449443065178592" fill="none" id="id68" stroke="none" /><text fill="#e1ed5e" style="font-size:6.75px; font-family:Arial;" text-anchor="middle"><textPath startOffset="22.20632615414155" xlink:href="#id68">August</textPath></text><line stroke="#e1ed5e" stroke-width="0.3" x1="26.63291911575756" x2="22.317208475507996" y1="142.92168965132927" y2="145.44649492493687" /><path d="M 25.769776987707644 143.4266507060508 a86.0,86.0 0 0,1 -11.730757126820373,-40.83630448921669" fill="none" id="id69" stroke="none" /><text fill="#e1ed5e" style="font-size:6.75px; font-family:Arial;" text-anchor="middle"><textPath startOffset="21.46611528233685" xlink:href="#id69">September</textPath></text><line stroke="#e1ed5e" stroke-width="0.3" x1="15.007084014347285" x2="10.007500721073583" y1="101.09737516637583" y2="101.16192664675087" /><path d="M 14.007167355692545 101.11028546245083 a86.0,86.0 0 0,1 10.666146001902534,-42.60595125391555" fill="none" id="id70" stroke="none" /><text fill="#e1ed5e" style="font-size:6.75px; font-family:Arial;" text-anchor="middle"><textPath startOffset="22.20632615414155" xlink:href="#id70">October</textPath></text><line stroke="#e1ed5e" stroke-width="0.3" x1="26.266209847984243" x2="21.928928074336255" y1="57.711370442889674" y2="55.22380399835377" /><path d="M 25.398753493254645 57.213857153982495 a86.0,86.0 0 0,1 29.58750427330803,-30.492523968695096" fill="none" id="id71" stroke="none" /><text fill="#e1ed5e" style="font-size:6.75px; font-family:Arial;" text-anchor="middle"><textPath startOffset="21.46611528233685" xlink:href="#id71">November</textPath></text><line stroke="#e1ed5e" stroke-width="0.3" x1="56.762969772571076" x2="54.21961505331055" y1="26.818313649435495" y2="22.513508569990535" /><path d="M 56.25429882871897 25.957352633546506 a86.0,86.0 0 0,1 42.265352541879196,-11.944610805530505" fill="none" id="id72" stroke="none" /><text fill="#e1ed5e" style="font-size:6.75px; font-family:Arial;" text-anchor="middle"><textPath startOffset="22.20632615414155" xlink:href="#id72">December</textPath></text></svg>