<?xml version="1.0" encoding="utf-8" ?>
<svg baseProfile="full" height="200mm" version="1.1" viewBox="0,0,200,200" width="200mm" xmlns="http://www.w3.org/2000/svg" xmlns:ev="http://www.w3.org/2001/xml-events" xmlns:xlink="http://www.w3.org/1999/xlink"><defs /><rect fill="#1a1a1a" height="200" width="200" x="0" y="0" /><text alignment-baseline="middle" fill="#e1ed5e" style="dominant-baseline: central; font-size:9.0px; font-family:Arial;" text-anchor="middle" x="100.0" y="100.0">2025</text><line stroke="#e1ed5e" stroke-width="0.3" x1="100.0" x2="100.0" y1="15.0" y2="10.0" /><path d="M 100.0 14.0 a86.0,86.0 0 0,1 42.46469731375804,11.215312516191453" fill="none" id="id61" stroke="none" /><text fill="#e1ed5e" style="font-size:6.75px; font-family:Arial;" text-anchor="middle"><textPath startOffset="22.20632615414155" xlink:href="#id61">January</textPath></text><path d="M 100.36148047927253 79.00311137660856 l 0.5416400472015078 -31.461604145114464 a52.466266212002594,52.466266212002594 0 0,0 0.9028529123711045,0.023318027050995876 l -1.08311959476748 31.44761932592111" fill="#fff917" stroke="none" /><path d="M 101.08401301168833 79.027996857942 l 2.347948069854906 -45.42489229137013 a66.48553286289292,66.48553286289292 0 0,0 1.1424049266691874,0.06891298494921574 l -3.1295150453637053 45.3777460370406" fill="#32ff2f" stroke="none" /><path d="M 108.09893153111575 80.62456947434976 l 11.063058253134784 -26.466641403412925 a49.68578681314328,49.68578681314328 0 0,0 0.7862568554750134,0.33663415244353184 l -11.516998866400112 26.272287723006603" fill="#ffca12" stroke="none" /><path d="M 110.36928655335952 81.73862282372117 l 12.470801982543032 -21.96236139506831 a46.256013544013356,46.256013544013356 0 0,0 0.689001532366448,0.3991141595183229 l -12.847000247374806 21.74444307815994" fill="#ff8c0c" stroke="none" /><line stroke="#e1ed5e" stroke-width="0.3" x1="143.23703022742887" x2="145.7803849466894" y1="26.81831364943548" y2="22.513508569990506" /><path d="M 143.74570117128098 25.957352633546492 a86.0,86.0 0 0,1 28.547481713284135,27.462654790039103" fill="none" id="id62" stroke="none" /><text fill="#e1ed5e" style="font-size:6.75px; font-family:Arial;" text-anchor="middle"><textPath startOffset="19.985693538727396" xlink:href="#id62">February</textPath></text><path d="M 112.48926042617603 83.11751280151076 l 16.356450615622624 -22.11000161004077 a48.50246621554705,48.50246621554705 0 0,0 0.6669177939020619,0.502308655711171 l -16.734614563283067 21.82517636482375" fill="#ffb510" stroke="none" /><path d="M 113.34407831869373 83.78471172551755 l 16.252977856553187 -19.75008801421579 a46.57782762032144,46.57782762032144 0 0,0 0.6146997080852161,0.5147933277041333 l -16.59053510159752 19.46739352911784" fill="#ff920d" stroke="none" /><path d="M 113.6212207817346 84.01681056812373 l 16.101556332022774 -18.89362408308118 a45.823963166788815,45.823963166788815 0 0,0 0.5959432624491565,0.5167961246734843 l -16.424393393118695 18.613662964988023" fill="#ff840c" stroke="none" /><path d="M 113.89432698308785 84.25364557470407 l 16.12003262617556 -18.268732799225045 a45.36394980208352,45.36394980208352 0 0,0 0.5810668598098823,0.5216875639687144 l -16.43211047358143 17.98854622648703" fill="#ff7c0b" stroke="none" /><path d="M 115.9244219780498 86.31012108654704 l 19.77155632908354 -16.99717656620501 a47.073328343287365,47.073328343287365 0 0,0 0.5229384709678574,0.6189942063413962 l -20.061205413538516 16.654323410234507" fill="#ff9b0e" stroke="none" /><path d="M 116.60985879189232 87.15038557335679 l 17.989949433578694 -13.917271463447445 a43.744861521011885,43.744861521011885 0 0,0 0.45562160505760385,0.5995446248915803 l -18.22684697886041 13.60554206267483" fill="#ff5d08" stroke="none" /><path d="M 117.04232023915458 87.72973835380427 l 19.503322082340976 -14.042152803263034 a45.032511886977545,45.032511886977545 0 0,0 0.44751032996875456,0.6329716253585375 l -19.742145032113612 13.704354677572704" fill="#ff760a" stroke="none" /><path d="M 117.2510076193507 88.02491185347247 l 18.467731819052744 -12.81969849410522 a43.481142942924784,43.481142942924784 0 0,0 0.421509376568576,0.6185129985891671 l -18.685665661290052 12.499907472245647" fill="#ff5808" stroke="none" /><path d="M 117.65298651832404 88.62581576622439 l 27.15592212916617 -17.49712214500261 a53.30469609890299,53.30469609890299 0 0,0 0.49033315603828187,0.7755892990904374 l -27.45308288145041 17.02708519819797" fill="#f7ff19" stroke="none" /><line stroke="#e1ed5e" stroke-width="0.3" x1="172.23445277983987" x2="176.4835382374775" y1="55.19839476539836" y2="52.563006222186495" /><path d="M 173.08426987136738 54.67131705675599 a86.0,86.0 0 0,1 12.851231095245387,41.99856678651699" fill="none" id="id63" stroke="none" /><text fill="#e1ed5e" style="font-size:6.75px; font-family:Arial;" text-anchor="middle"><textPath startOffset="22.20632615414155" xlink:href="#id63">March</textPath></text><path d="M 117.84615892207809 88.93136811851018 l 27.5056478075624 -17.059687273498973 a53.36655049867448,53.36655049867448 0 0,0 0.47746341612673204,0.7848243155601132 l -27.795227021975357 16.58369518473178" fill="#f6ff19" stroke="none" /><path d="M 118.3937258080291 89.86733742301442 l 47.289710036334824 -26.05076753685789 a74.99036177485789,74.99036177485789 0 0,0 0.6131065596866824,1.1359933403505222 l -47.73112469523997 25.23289321317491" fill="#3effb2" stroke="none" /><path d="M 118.89224826269711 90.83032412892265 l 24.600689330033823 -11.940365393508568 a48.34531479510406,48.34531479510406 0 0,0 0.3569307107200857,0.7517871054565155 l -24.802578234595664 11.515135872411511" fill="#ffb210" stroke="none" /><path d="M 119.196687751892 91.48605970444005 l 24.655134892415422 -10.934821109038088 a47.971206670259775,47.971206670259775 0 0,0 0.32828133612252813,0.7577185851303826 l -24.83970693838063 10.508803379321103" fill="#ffab0f" stroke="none" /><path d="M 119.47837535516314 92.15188598940014 l 37.45805113598681 -15.092380682158883 a61.38422401831444,61.38422401831444 0 0,0 0.38644715955846737,0.9834658692696184 l -37.712291845426975 14.44536580799348" fill="#79ff26" stroke="none" /><path d="M 119.61058180528143 92.48833698450437 l 16.777233265278987 -6.426373468797279 a38.965907491636635,38.965907491636635 0 0,0 0.23452913865776265,0.6284214910510808 l -16.885366992438374 6.136628840716865" fill="#ff0000" stroke="none" /><path d="M 119.85752413597 93.16781622104841 l 22.183379370001713 -7.632418002177666 a44.45967017742115,44.45967017742115 0 0,0 0.24275552859798272,0.7258081320010774 l -22.31147219237147 7.2494367672542745" fill="#ff6b09" stroke="none" /><path d="M 120.08093135843002 93.85539295169968 l 47.25517141626711 -14.459710765912204 a70.41795686807201,70.41795686807201 0 0,0 0.34469289064191927,1.1621330712297202 l -47.49707020402073 13.644148307935954" fill="#36ff6c" stroke="none" /><path d="M 120.28053869075195 94.5502522615342 l 22.584031452797174 -6.068737927136315 a44.38521021263642,44.38521021263642 0 0,0 0.19192094752452807,0.739549700293674 l -22.685148732192005 5.679091801293791" fill="#ff6909" stroke="none" /><path d="M 120.37134235888165 94.90015583598534 l 28.709826333923004 -7.187333937034144 a50.59580877838045,50.59580877838045 0 0,0 0.2042316680324934,0.8466721152790263 l -28.829290802216317 6.692076590095712" fill="#ffd914" stroke="none" /><path d="M 120.53481517161879 95.60439243477599 l 26.897222736411386 -5.757521300074361 a48.506538176457894,48.506538176457894 0 0,0 0.16774185500478356,0.8179688573105984 l -26.992343887331167 5.293676786600351" fill="#ffb510" stroke="none" /><path d="M 120.73433829027371 96.67025291283417 l 62.20301487082114 -9.98924126149749 a84.0,84.0 0 0,0 0.21697642624280045,1.4296035504316715 l -62.36574719050324 8.917038598673738" fill="#4dd2ff" stroke="none" /><line stroke="#e1ed5e" stroke-width="0.3" x1="184.98032266829074" x2="189.97916517819016" y1="98.17113171792111" y2="98.06355123074" /><path d="M 185.9800911702706 98.14961562048488 a86.0,86.0 0 0,1 -9.607161424134198,41.387399972396054" fill="none" id="id64" stroke="none" /><text fill="#e1ed5e" style="font-size:6.75px; font-family:Arial;" text-anchor="middle"><textPath startOffset="21.466115282336823" xlink:href="#id64">April</textPath></text><line stroke="#e1ed5e" stroke-width="0.3" x1="174.80103733775053" x2="179.2010983576182" y1="140.37084112569926" y2="142.7455964860345" /><path d="M 175.68104954172406 140.8457921977663 a86.0,86.0 0 0,1 -30.038265399797805,32.042727171017184" fill="none" id="id65" stroke="none" /><text fill="#e1ed5e" style="font-size:6.75px; font-family:Arial;" text-anchor="middle"><textPath startOffset="22.206326154141568" xlink:href="#id65">May</textPath></text><line stroke="#e1ed5e" stroke-width="0.3" x1="143.8653032363475" x2="146.44561519142675" y1="172.8068346515853" y2="177.08958963109032" /><path d="M 144.38136562736335 173.6633856474863 a86.0,86.0 0 0,1 -40.68145358897372,12.25698825130547" fill="none" id="id66" stroke="none" /><text fill="#e1ed5e" style="font-size:6.75px; font-family:Arial;" text-anchor="middle"><textPath startOffset="21.466115282336833" xlink:href="#id66">June</textPath></text><line stroke="#e1ed5e" stroke-width="0.3" x1="102.19456741930631" x2="102.32365962044197" y1="184.97166512339345" y2="189.96999836594603" /><path d="M 102.22038585953345 185.97133177190398 a86.0,86.0 0 0,1 -42.740103519485714,-10.115201625700543" fill="none" id="id67" stroke="none" /><text fill="#e1ed5e" style="font-size:6.75px; font-family:Arial;" text-anchor="middle"><textPath startOffset="22.20632615414155" xlink:href="#id67">July</textPath></text><line stroke="#e1ed5e" stroke-width="0.3" x1="58.666819895761336" x2="56.23545636021788" y1="174.27360380694188" y2="178.64263932499728" /><path d="M 58.180547188652646 175.14741091055294 a86.0,86.0 0 0,1 -31.652253787137756,-30.449443065178592" fill="none" id="id68" stroke="none" /><text fill="#e1ed5e" style="font-size:6.75px; font-family:Arial;" text-anchor="middle"><textPath startOffset="22.20632615414155" xlink:href="#id68">August</textPath></text><line stroke="#e1ed5e" stroke-width="0.3" x1="26.63291911575756" x2="22.317208475507996" y1="142.92168965132927" y2="145.44649492493687" /><path d="M 25.769776987707644 143.4266507060508 a86.0,86.0 0 0,1 -11.730757126820373,-40.83630448921669" fill="none" id="id69" stroke="none" /><text fill="#e1ed5e" style="font-size:6.75px; font-family:Arial;" text-anchor="middle"><textPath startOffset="21.46611528233685" xlink:href="#id69">September</textPath></text><line stroke="#e1ed5e" stroke-width="0.3" x1="15.007084014347285" x2="10.007500721073583" y1="101.09737516637583" y2="101.16192664675087" /><path d="M 14.007167355692545 101.11028546245083 a86.0,86.0 0 0,1 10.666146001902534,-42.60595125391555" fill="none" id="id70" stroke="none" /><text fill="#e1ed5e" style="font-size:6.75px; font-family:Arial;" text-anchor="middle"><textPath startOffset="22.20632615414155" xlink:href="#id70">October</textPath></text><line stroke="#e1ed5e" stroke-width="0.3" x1="26.266209847984243" x2="21.928928074336255" y1="57.711370442889674" y2="55.22380399835377" /><path d="M 25.398753493254645 57.213857153982495 a86.0,86.0 0 0,1 29.58750427330803,-30.492523968695096" fill="none" id="id71" stroke="none" /><text fill="#e1ed5e" style="font-size:6.75px; font-family:Arial;" text-anchor="middle"><textPath startOffset="21.46611528233685" xlink:href="#id71">November</textPath></text><line stroke="#e1ed5e" stroke-width="0.3" x1="56.762969772571076" x2="54.21961505331055" y1="26.818313649435495" y2="22.513508569990535" /><path d="M 56.25429882871897 25.957352633546506 a86.0,86.0 0 0,1 42.265352541879196,-11.944610805530505" fill="none" id="id72" stroke="none" /><text fill="#e1ed5e" style="font-size:6.75px; font-family:Arial;" text-anchor="middle"><textPath startOffset="22.20632615414155" xlink:href="#id72">December</textPath></text></svg>