<?xml version="1.0" encoding="utf-8" ?>
<svg baseProfile="full" height="200mm" version="1.1" viewBox="0,0,200,200" width="200mm" xmlns="http://www.w3.org/2000/svg" xmlns:ev="http://www.w3.org/2001/xml-events" xmlns:xlink="http://www.w3.org/1999/xlink"><defs /><rect fill="#1a1a1a" height="200" width="200" x="0" y="0" /><text alignment-baseline="middle" fill="#e1ed5e" style="dominant-baseline: central; font-size:9.0px; font-family:Arial;" text-anchor="middle" x="100.0" y="100.0">2024</text><line stroke="#e1ed5e" stroke-width="0.3" x1="100.0" x2="100.0" y1="15.0" y2="10.0" /><path d="M 100.0 14.0 a86.0,86.0 0 0,1 42.35913384403234,11.155469271406648" fill="none" id="id49" stroke="none" /><text fill="#e1ed5e" style="font-size:6.75px; font-family:Arial;" text-anchor="middle"><textPath startOffset="22.145653131862478" xlink:href="#id49">January</textPath></text><path d="M 107.06938296918511 80.22567764915836 l 7.112352743551868 -19.89451645736761 a42.12764413324828,42.12764413324828 0 0,0 0.6788786566640804,0.2492936461762601 l -7.452820551870072 19.76949196218263" fill="#ff900d" stroke="none" /><path d="M 108.73861861582097 80.90454125486305 l 9.312547432418302 -20.34959678706249 a43.37922315624617,43.37922315624617 0 0,0 0.6744669497143299,0.3156845882990625 l -9.660503096004138 20.186735967192895" fill="#ffa40f" stroke="none" /><line stroke="#e1ed5e" stroke-width="0.3" x1="143.13028292997686" x2="145.6673583964461" y1="26.7553504044142" y2="22.446841604673864" /><path d="M 143.63769802327073 25.89364864446614 a86.0,86.0 0 0,1 29.32050498858742,28.57503671076993" fill="none" id="id50" stroke="none" /><text fill="#e1ed5e" style="font-size:6.75px; font-family:Arial;" text-anchor="middle"><textPath startOffset="20.669276256404974" xlink:href="#id50">February</textPath></text><path d="M 111.5731344415666 82.4767994020092 l 19.770233448150776 -29.934653254935974 a56.874023974006995,56.874023974006995 0 0,0 0.8100586514993166,0.5450436124977213 l -20.281188387747093 29.59085996838113" fill="#92ff23" stroke="none" /><path d="M 115.41159269507618 85.73525988315684 l 45.832954104716535 -42.422298073051266 a83.4524703735878,83.4524703735878 0 0,0 0.964083865859881,1.0596970512153567 l -46.5544356714183 41.62926344627824" fill="#4cd8ff" stroke="none" /><path d="M 117.21940702142032 87.97951657250589 l 17.084865791960905 -11.926563200332991 a41.83591967974663,41.83591967974663 0 0,0 0.4060280857381945,0.5924071113883819 l -17.287083614514422 11.63152135387456" fill="#ff8b0c" stroke="none" /><path d="M 117.42321728460499 88.27688183743584 l 17.28971581523649 -11.633292415991754 a41.83909224048903,41.83909224048903 0 0,0 0.3958288155203203,0.5993352770460598 l -17.486869069677535 11.334777260606634" fill="#ff8b0c" stroke="none" /><path d="M 117.62189284568427 88.57770195909679 l 17.896670146448027 -11.600405367493122 a42.32745195800303,42.32745195800303 0 0,0 0.3899815767823177,0.6131158129199997 l -18.093169414856238 11.29147587989445" fill="#ff930d" stroke="none" /><path d="M 117.81537515405839 88.88188828441811 l 18.30391672473748 -11.422997788063991 a42.575871846399146,42.575871846399146 0 0,0 0.3816258582254114,0.6233571591145363 l -18.49731054741829 11.107103512824901" fill="#ff970e" stroke="none" /><line stroke="#e1ed5e" stroke-width="0.3" x1="172.87174338648825" x2="177.1583165268699" y1="56.24261187166439" y2="53.66864786411523" /><path d="M 173.72905801456457 55.72781907015455 a86.0,86.0 0 0,1 12.242430191666344,42.057860355516425" fill="none" id="id51" stroke="none" /><text fill="#e1ed5e" style="font-size:6.75px; font-family:Arial;" text-anchor="middle"><textPath startOffset="22.145653131862474" xlink:href="#id51">March</textPath></text><path d="M 118.00360718960297 89.18935116829356 l 17.906109694346046 -10.75210438713523 a41.886275712481776,41.886275712481776 0 0,0 0.36486195297932916,0.6196153626007831 l -18.088045357455144 10.44313785624089" fill="#ff8c0c" stroke="none" /><path d="M 118.18653347947321 89.5 l 18.974090102917444 -10.954696028547604 a42.909392057095204,42.909392057095204 0 0,0 0.3628226836455663,0.6410729170036332 l -19.159346151584387 10.627366341444853" fill="#ff9d0e" stroke="none" /><path d="M 118.36410011445183 89.81374322990088 l 18.279507057543537 -10.139334427416104 a41.903264838244034,41.903264838244034 0 0,0 0.34351628134303164,0.632031266626067 l -18.45086868850191 9.824048327315435" fill="#ff8c0c" stroke="none" /><path d="M 118.53625476483649 90.13048839642627 l 19.088926336947107 -10.16377808637253 a42.626129882307175,42.626129882307175 0 0,0 0.33835390010507627,0.6488382170854811 l -19.260588306027127 9.83459362618255" fill="#ff980e" stroke="none" /><path d="M 118.70294669586156 90.45014215332178 l 11.359657291382158 -5.800321953742493 a33.754824520342055,33.754824520342055 0 0,0 0.25907645455768197,0.5183264575520489 l -11.457553659151577 5.604463640026694" fill="#ff0000" stroke="none" /><path d="M 119.0197475246899 91.09779779509293 l 21.290325769781518 -9.964947471826605 a44.506980867386744,44.506980867386744 0 0,0 0.3179399310717624,0.6947561284137918 l -21.458250165708332 9.59800236119813" fill="#ffb710" stroke="none" /><path d="M 119.16976305983485 91.42560881287824 l 19.049982386724782 -8.520814815588283 a41.868783243305614,41.868783243305614 0 0,0 0.28783017626233115,0.6586117713141513 l -19.193446445004085 8.19254097449828" fill="#ff8c0c" stroke="none" /><path d="M 119.71291397450082 92.76114493625339 l 19.957275590459712 -7.328588033887777 a42.26031635615995,42.26031635615995 0 0,0 0.24422403842251122,0.6831381016761948 l -20.08013979892617 6.984914975830665" fill="#ff920d" stroke="none" /><path d="M 119.83427380445688 93.10060997987247 l 19.838424210819202 -6.900833746906634 a42.00439433953912,42.00439433953912 0 0,0 0.23105332877333332,0.6830681110323625 l -19.9539629611649 6.55926396140011" fill="#ff8e0d" stroke="none" /><path d="M 119.94978838288452 93.4421083053983 l 20.55346135883893 -6.756330992266785 a42.63545197832367,42.63545197832367 0 0,0 0.22258809026707707,0.6972540224723888 l -20.666414164883264 6.402507936103009" fill="#ff980e" stroke="none" /><path d="M 120.05942366710727 93.78553927170692 l 17.538368933393542 -5.433431527427675 a39.360734272002,39.360734272002 0 0,0 0.1944114383833997,0.6471324494847691 l -17.62905669178057 5.131561474352183" fill="#ff6209" stroke="none" /><path d="M 120.16314734710363 94.1308016681162 l 20.631783690932746 -6.005611541593196 a42.488086658843216,42.488086658843216 0 0,0 0.1978356753508344,0.7020490190066998 l -20.731837858358162 5.650554598683483" fill="#ff960d" stroke="none" /><path d="M 120.26092885502905 94.47779374421319 l 50.70574462871812 -13.820076176988 a73.55537121827348,73.55537121827348 0 0,0 0.3215788962452613,1.2210874483231462 l -50.935513005768115 12.947608224292054" fill="#3dffad" stroke="none" /><path d="M 120.43855184770803 95.1765574152323 l 20.767639703087855 -4.901106422577571 a42.33812791701048,42.33812791701048 0 0,0 0.16086298808378943,0.7087920067104045 l -20.84871355272931 4.5438800819281395" fill="#ff940d" stroke="none" /><path d="M 120.51834098615036 95.52812308129327 l 20.980803512020994 -4.572668473764892 a42.473318629895005,42.473318629895005 0 0,0 0.14914665450735837,0.713720733514433 l -21.056207877352723 4.211831288965055" fill="#ff960d" stroke="none" /><path d="M 120.592083275326 95.88100663000786 l 21.58705941985544 -4.318016464830132 a43.01468602062981,43.01468602062981 0 0,0 0.13861729949213775,0.7253042850382075 l -21.658003011629734 3.9468096147586094" fill="#ff9f0e" stroke="none" /><path d="M 120.7213421655516 96.59031103205396 l 20.155224679288565 -3.316534551014429 a41.42626944159592,41.42626944159592 0 0,0 0.10944131499513922,0.7026917501708981 l -20.209187486421968 2.9700546189120893" fill="#ff850c" stroke="none" /><path d="M 120.77682067341334 96.94652285012252 l 21.48645576959601 -3.157769071389695 a42.71725781600962,42.71725781600962 0 0,0 0.10039671004498955,0.7264205813203958 l -21.53749699619621 2.7884601818692136" fill="#ff9a0e" stroke="none" /><path d="M 120.82617615685814 97.30363454192243 l 22.914075224479504 -2.9666857935767372 a44.1053255331085,44.1053255331085 0 0,0 0.09076857877996844,0.7516940423643226 l -22.961625889519137 2.572898074289002" fill="#ffb010" stroke="none" /><path d="M 120.86939407059847 97.66154086499901 l 21.557074407141837 -2.4155151510745867 a42.69198401345807,42.69198401345807 0 0,0 0.07535665274237383,0.7290072572378786 l -21.595363452365877 2.0451033715537767" fill="#ff990e" stroke="none" /><path d="M 120.93736805541906 98.37931529534042 l 35.191982348229295 -2.724082003404582 a56.297255479135416,56.297255479135416 0 0,0 0.0663129094205757,0.9641751492921188 l -35.23355921881494 2.119563429958129" fill="#9aff23" stroke="none" /><line stroke="#e1ed5e" stroke-width="0.3" x1="184.99686870605535" x2="189.99668451229388" y1="99.2704041080226" y2="99.22748670261217" /><path d="M 185.99683186730306 99.26182062694052 a86.0,86.0 0 0,1 -10.086455211305974,41.156179273409016" fill="none" id="id52" stroke="none" /><text fill="#e1ed5e" style="font-size:6.75px; font-family:Arial;" text-anchor="middle"><textPath startOffset="21.40746469413373" xlink:href="#id52">April</textPath></text><line stroke="#e1ed5e" stroke-width="0.3" x1="174.33088141563837" x2="178.70328620479359" y1="141.23008692659167" y2="143.65538615756765" /><path d="M 175.20536237346943 141.71514677278685 a86.0,86.0 0 0,1 -30.301960400862466,31.631185727798858" fill="none" id="id53" stroke="none" /><text fill="#e1ed5e" style="font-size:6.75px; font-family:Arial;" text-anchor="middle"><textPath startOffset="22.145653131862474" xlink:href="#id53">May</textPath></text><path d="M 116.57777611688842 112.89097897827486 l 24.804571611499114 19.288184914211833 a52.42134386233053,52.42134386233053 0 0,0 -0.5584959225183465,0.7056413534795851 l -24.469809258339208 -19.7111462116061" fill="#d0ff1d" stroke="none" /><path d="M 116.35404254752997 113.17365903436017 l 28.634437086827205 23.065875591700255 a57.769084896027245,57.769084896027245 0 0,0 -0.6287289572695611,0.7669470979704026 l -28.234261310319017 -23.554024971369152" fill="#86ff25" stroke="none" /><path d="M 116.1254893667686 113.45245675266167 l 34.325008097984494 28.635142566555782 a65.70097952767563,65.70097952767563 0 0,0 -0.7299236050816427,0.8598481714193761 l -33.82838992939573 -29.220157520424713" fill="#31ff3f" stroke="none" /><path d="M 115.41159269507618 114.26474011684316 l 23.019570788641353 21.306571059729137 a52.36671180752865,52.36671180752865 0 0,0 -0.6162917776021533,0.6544805108814873 l -22.65042317730294 -21.69859303055512" fill="#d1ff1d" stroke="none" /><path d="M 114.91283532996324 114.78537596483092 l 30.464143785195024 30.20376805246235 a63.899086949863886,63.899086949863886 0 0,0 -0.7789848835944321,0.772326933143443 l -29.941166981470626 -30.722274995834454" fill="#38ff2e" stroke="none" /><path d="M 112.7482090630111 116.68781488649013 l 31.972343906131965 41.85282449915421 a73.66772914611923,73.66772914611923 0 0,0 -1.011517595857843,0.7590616615184933 l -31.249173321363358 -42.39550518793672" fill="#3dffae" stroke="none" /><path d="M 111.8722381534696 117.32195027204791 l 31.22591919926716 45.559549309631954 a76.23341889776466,76.23341889776466 0 0,0 -1.085795169684641,0.7305714476626266 l -30.439227741485514 -46.0888704313517" fill="#41ffd0" stroke="none" /><line stroke="#e1ed5e" stroke-width="0.3" x1="143.1302829299769" x2="145.66735839644613" y1="173.24464959558577" y2="177.55315839532614" /><path d="M 143.63769802327073 174.10635135553383 a86.0,86.0 0 0,1 -40.68552437913181,11.842963189579606" fill="none" id="id54" stroke="none" /><text fill="#e1ed5e" style="font-size:6.75px; font-family:Arial;" text-anchor="middle"><textPath startOffset="21.407464694133747" xlink:href="#id54">June</textPath></text><path d="M 109.3889696526874 118.78422872680471 l 14.002946810328163 28.01527382285197 a52.31993114204204,52.31993114204204 0 0,0 -0.8068225456983136,0.3946573374943986 l -13.51996401536778 -28.251524910443592" fill="#d1ff1c" stroke="none" /><path d="M 108.73861861582097 119.09545874513695 l 26.2158558474629 57.28637623541085 a84.0,84.0 0 0,0 -1.3163463885774922,0.5887849963605989 l -25.228596056029783 -57.7279649826813" fill="#4dd2ff" stroke="none" /><path d="M 108.07796709384702 119.3841803445677 l 24.081171893222326 57.78604610091967 a83.60295491211684,83.60295491211684 0 0,0 -1.3294682773427684,0.540683174509162 l -23.085649154689115 -58.19091653200812" fill="#4cd6ff" stroke="none" /><path d="M 107.74402155503746 119.51999308798841 l 15.499990560273567 39.07010155512948 a63.03239872879849,63.03239872879849 0 0,0 -1.0092019435328405,0.39038099188548386 l -14.827016354247196 -39.33042243515301" fill="#43ff2d" stroke="none" /><path d="M 107.06938296918513 119.77432235084164 l 21.14161296703508 59.13685418503711 a83.80235124380494,83.80235124380494 0 0,0 -1.3587722327414888,0.4726515159882757 l -20.12333496224857 -59.49106413359398" fill="#4dd4ff" stroke="none" /><path d="M 105.69591212413111 120.21278271476187 l 14.493290630788175 51.431575480407155 a74.43465569932411,74.43465569932411 0 0,0 -1.2328456032022488,0.33601755137365935 l -13.608263626651231 -51.67279352592495" fill="#3effb8" stroke="none" /><line stroke="#e1ed5e" stroke-width="0.3" x1="101.45913802915013" x2="101.54496967792366" y1="184.9874750549273" y2="189.98673829345242" /><path d="M 101.47630435890484 185.9873277026323 a86.0,86.0 0 0,1 -42.54439059252881,-10.42667462771756" fill="none" id="id55" stroke="none" /><text fill="#e1ed5e" style="font-size:6.75px; font-family:Arial;" text-anchor="middle"><textPath startOffset="22.145653131862474" xlink:href="#id55">July</textPath></text><path d="M 92.59220618246901 119.65005319985036 l -11.128877261983778 29.52066912756937 a52.54872128710967,52.54872128710967 0 0,0 -0.8413494127249075,-0.3254520270859244 l 11.633998937202215 -29.325277212345405" fill="#ceff1d" stroke="none" /><path d="M 92.25597844496254 119.51999308798841 l -11.54033860848315 29.08919200051828 a52.294736081990905,52.294736081990905 0 0,0 -0.8315997056097212,-0.3382043606551004 l 12.037992775283312 -28.886800383283887" fill="#d2ff1c" stroke="none" /><path d="M 91.59046798132341 119.24265499422711 l -13.726589049276184 31.409122022027166 a55.277575659931095,55.277575659931095 0 0,0 -0.8662432986817569,-0.38745960933040746 l 14.263745750813575 -31.168858661786903" fill="#a8ff21" stroke="none" /><line stroke="#e1ed5e" stroke-width="0.3" x1="58.13341422392154" x2="55.67067388415222" y1="173.97424548756322" y2="178.32567169271397" /><path d="M 57.64086615596768 174.84453072859336 a86.0,86.0 0 0,1 -31.369924170532247,-30.572349798747897" fill="none" id="id56" stroke="none" /><text fill="#e1ed5e" style="font-size:6.75px; font-family:Arial;" text-anchor="middle"><textPath startOffset="22.145653131862474" xlink:href="#id56">August</textPath></text><path d="M 89.65649057296885 118.27599006163327 l -15.436773138247387 27.275299012249548 a52.340642959731014,52.340642959731014 0 0,0 -0.7781496651932174,-0.4492649186691246 l 15.902715271301004 -27.00628719630425" fill="#d1ff1c" stroke="none" /><path d="M 89.03521579738668 117.91015095944536 l -16.522457409918122 26.988192468221236 a52.64418005833477,52.64418005833477 0 0,0 -0.7666894605853359,-0.47847092751257864 l 16.98331099929317 -26.70058574386711" fill="#cdff1d" stroke="none" /><path d="M 85.08716467003676 114.78537596483092 l -22.277549595646853 22.087144332976255 a52.370864839405215,52.370864839405215 0 0,0 -0.6274857537495878,-0.6438556618248585 l 22.65342215054725 -21.70146597908366" fill="#d1ff1d" stroke="none" /><line stroke="#e1ed5e" stroke-width="0.3" x1="26.387840678322732" x2="22.057713659400548" y1="142.50000000000003" y2="145.00000000000006" /><path d="M 25.521815274538298 143.00000000000003 a86.0,86.0 0 0,1 -11.493303480769221,-40.785679425670985" fill="none" id="id57" stroke="none" /><text fill="#e1ed5e" style="font-size:6.75px; font-family:Arial;" text-anchor="middle"><textPath startOffset="21.40746469413373" xlink:href="#id57">September</textPath></text><line stroke="#e1ed5e" stroke-width="0.3" x1="15.003131293944662" x2="10.003315487706104" y1="100.72959589197737" y2="100.7725132973878" /><path d="M 14.003168132696942 100.73817937305945 a86.0,86.0 0 0,1 10.791469493833604,-42.45332614584628" fill="none" id="id58" stroke="none" /><text fill="#e1ed5e" style="font-size:6.75px; font-family:Arial;" text-anchor="middle"><textPath startOffset="22.145653131862435" xlink:href="#id58">October</textPath></text><line stroke="#e1ed5e" stroke-width="0.3" x1="26.387840678322718" x2="22.05771365940052" y1="57.49999999999999" y2="54.99999999999999" /><path d="M 25.521815274538284 56.99999999999999 a86.0,86.0 0 0,1 29.574782752854787,-30.34633250058573" fill="none" id="id59" stroke="none" /><text fill="#e1ed5e" style="font-size:6.75px; font-family:Arial;" text-anchor="middle"><textPath startOffset="21.40746469413373" xlink:href="#id59">November</textPath></text><line stroke="#e1ed5e" stroke-width="0.3" x1="56.869717070023135" x2="54.33264160355391" y1="26.7553504044142" y2="22.446841604673864" /><path d="M 56.362301976729285 25.89364864446614 a86.0,86.0 0 0,1 42.16139366436587,-11.88097634709845" fill="none" id="id60" stroke="none" /><text fill="#e1ed5e" style="font-size:6.75px; font-family:Arial;" text-anchor="middle"><textPath startOffset="22.145653131862474" xlink:href="#id60">December</textPath></text></svg>