<?xml version="1.0" encoding="utf-8" ?>
<svg baseProfile="full" height="200mm" version="1.1" viewBox="0,0,200,200" width="200mm" xmlns="http://www.w3.org/2000/svg" xmlns:ev="http://www.w3.org/2001/xml-events" xmlns:xlink="http://www.w3.org/1999/xlink"><defs /><rect fill="#1a1a1a" height="200" width="200" x="0" y="0" /><text alignment-baseline="middle" fill="#e1ed5e" style="dominant-baseline: central; font-size:9.0px; font-family:Arial;" text-anchor="middle" x="100.0" y="100.0">2024</text><line stroke="#e1ed5e" stroke-width="0.3" x1="100.0" x2="100.0" y1="15.0" y2="10.0" /><path d="M 100.0 14.0 a86.0,86.0 0 0,1 42.35913384403234,11.155469271406648" fill="none" id="id49" stroke="none" /><text fill="#e1ed5e" style="font-size:6.75px; font-family:Arial;" text-anchor="middle"><textPath startOffset="22.145653131862478" xlink:href="#id49">January</textPath></text><path d="M 107.06938296918511 80.22567764915836 l 7.017033162896187 -19.627890625601456 a41.84449195398531,41.84449195398531 0 0,0 0.674315715273825,0.2476180708944344 l -7.352938029824137 19.5045417056983" fill="#ff8e0d" stroke="none" /><path d="M 108.73861861582097 80.90454125486305 l 9.187740895383282 -20.076871979647176 a43.07929734497546,43.07929734497546 0 0,0 0.6698036562676093,0.3135019315025075 l -9.531033265522396 19.916193816574136" fill="#ffa20f" stroke="none" /><line stroke="#e1ed5e" stroke-width="0.3" x1="143.13028292997686" x2="145.6673583964461" y1="26.7553504044142" y2="22.446841604673864" /><path d="M 143.63769802327073 25.89364864446614 a86.0,86.0 0 0,1 29.32050498858742,28.57503671076993" fill="none" id="id50" stroke="none" /><text fill="#e1ed5e" style="font-size:6.75px; font-family:Arial;" text-anchor="middle"><textPath startOffset="20.669276256404974" xlink:href="#id50">February</textPath></text><path d="M 111.5731344415666 82.4767994020092 l 19.50527325428931 -29.533469750937165 a56.39324116627375,56.39324116627375 0 0,0 0.803210845670166,0.5404361031280046 l -20.009380388056478 29.194283973752043" fill="#97ff23" stroke="none" /><path d="M 115.41159269507618 85.73525988315684 l 45.21870195454959 -41.853755453108874 a82.61548386552708,82.61548386552708 0 0,0 0.9544145872303639,1.0490688201932143 l -45.93051424262183 41.07134905735799" fill="#4be2ff" stroke="none" /><path d="M 117.21940702142032 87.97951657250589 l 16.855894830934727 -11.766723686755737 a41.556677184603316,41.556677184603316 0 0,0 0.4033179673368848,0.5884529676480014 l -17.055402535086934 11.475635984037687" fill="#ff890c" stroke="none" /><path d="M 117.42321728460499 88.27688183743584 l 17.05799945911814 -11.477383310422917 a41.559807226762835,41.559807226762835 0 0,0 0.393186572339221,0.5953345841028602 l -17.252510470378084 11.182868847980998" fill="#ff890c" stroke="none" /><path d="M 117.62189284568427 88.57770195909679 l 17.656819402959666 -11.444937013358436 a42.04162195907138,42.04162195907138 0 0,0 0.3873480983063241,0.6089755473465893 l -17.850685192891877 11.140147791333176" fill="#ff910d" stroke="none" /><path d="M 117.81537515405839 88.88188828441811 l 18.058608072387493 -11.269907046048116 a42.28671253008937,42.28671253008937 0 0,0 0.37903399885847455,0.6191235516244383 l -18.24941003570137 10.958246378299123" fill="#ff950d" stroke="none" /><line stroke="#e1ed5e" stroke-width="0.3" x1="172.87174338648825" x2="177.1583165268699" y1="56.24261187166439" y2="53.66864786411523" /><path d="M 173.72905801456457 55.72781907015455 a86.0,86.0 0 0,1 12.242430191666344,42.057860355516425" fill="none" id="id51" stroke="none" /><text fill="#e1ed5e" style="font-size:6.75px; font-family:Arial;" text-anchor="middle"><textPath startOffset="22.145653131862474" xlink:href="#id51">March</textPath></text><path d="M 118.00360718960297 89.18935116829356 l 17.666132442263454 -10.60800494236613 a41.60635834699711,41.60635834699711 0 0,0 0.36242365559178824,0.6154746005740137 l -17.84562980798501 10.303179173498558" fill="#ff8a0c" stroke="none" /><path d="M 118.18653347947321 89.5 l 18.719799803048275 -10.807881455465827 a42.61576291093165,42.61576291093165 0 0,0 0.36033988653052307,0.6366860523983765 l -18.902573054600172 10.484938632968333" fill="#ff9a0e" stroke="none" /><path d="M 118.36410011445183 89.81374322990088 l 18.034525542967053 -10.003447310930607 a41.62311978490393,41.62311978490393 0 0,0 0.34121969688042414,0.627805809884568 l -18.20359058946282 9.692386667571435" fill="#ff8a0c" stroke="none" /><path d="M 118.53625476483649 90.13048839642627 l 18.83309700462743 -10.02756337655675 a42.33629700900718,42.33629700900718 0 0,0 0.3360532905181755,0.6444264948558543 l -19.00245836412055 9.702790638596396" fill="#ff960d" stroke="none" /><path d="M 118.70294669586156 90.45014215332178 l 11.207415437181597 -5.722586178221529 a33.583884668445926,33.583884668445926 0 0,0 0.25776444978795854,0.5157015691354494 l -11.303999800181291 5.529352752922328" fill="#ff0000" stroke="none" /><path d="M 119.0197475246899 91.09779779509293 l 21.004993335132767 -9.831397485131763 a44.19194087435606,44.19194087435606 0 0,0 0.3156894123504977,0.6898383388538646 l -21.170667212338316 9.469370164063214" fill="#ffb410" stroke="none" /><path d="M 119.16976305983485 91.42560881287824 l 18.79467498029069 -8.40661906006942 a41.58910031147275,41.58910031147275 0 0,0 0.2859074743987681,0.6542122531798327 l -18.936216336706426 8.082744737113737" fill="#ff8a0c" stroke="none" /><path d="M 119.71291397450082 92.76114493625339 l 19.689808662299118 -7.2303704730642195 a41.97538610695184,41.97538610695184 0 0,0 0.2425774152514049,0.6785322036059174 l -19.811026247594466 6.891303313077385" fill="#ff900d" stroke="none" /><path d="M 119.83427380445688 93.10060997987247 l 19.57255012599415 -6.80834893876406 a41.72289395105142,41.72289395105142 0 0,0 0.22950488121602988,0.6784904009702948 l -19.686540428782546 6.4713568633196035" fill="#ff8c0c" stroke="none" /><path d="M 119.94978838288452 93.4421083053983 l 20.27800436332878 -6.665782806571456 a42.34549417051675,42.34549417051675 0 0,0 0.2210742994731954,0.6925120943712526 l -20.38944337857923 6.3167016785088155" fill="#ff960d" stroke="none" /><path d="M 120.05942366710727 93.78553927170692 l 17.30332013415741 -5.360612808588779 a39.114664152248125,39.114664152248125 0 0,0 0.19319604322349399,0.6430867942832957 l -17.39279249738453 5.062788410714759" fill="#ff6008" stroke="none" /><path d="M 120.16314734710363 94.1308016681162 l 20.35527702140889 -5.9251244799461835 a42.20010383750878,42.20010383750878 0 0,0 0.19649475180194406,0.6972905543850282 l -20.45399026528542 5.574826001658142" fill="#ff940d" stroke="none" /><path d="M 120.26092885502905 94.47779374421319 l 50.02618745697559 -13.634859847973058 a72.85102539539918,72.85102539539918 0 0,0 0.3184995459742561,1.2093946537746907 l -50.252876483754584 12.774084689825568" fill="#3cffa4" stroke="none" /><path d="M 120.43855184770803 95.1765574152323 l 20.48931229455188 -4.8354219120093225 a42.05215483913261,42.05215483913261 0 0,0 0.15977643829800003,0.7040044678723265 l -20.569299594407546 4.48298311019797" fill="#ff910d" stroke="none" /><path d="M 120.51834098615036 95.52812308129327 l 20.699619287237134 -4.511385680698721 a42.185533729329855,42.185533729329855 0 0,0 0.14813608701412714,0.7088848022297708 l -20.774013085075627 4.155384427183545" fill="#ff930d" stroke="none" /><path d="M 120.592083275326 95.88100663000786 l 21.297750167954888 -4.260146511871868 a42.71964572729575,42.71964572729575 0 0,0 0.13766651517899128,0.7203293797486167 l -21.367742975416036 3.893914567089937" fill="#ff9c0e" stroke="none" /><path d="M 120.7213421655516 96.59031103205396 l 19.885104842193517 -3.2720864346130925 a41.15251706910596,41.15251706910596 0 0,0 0.10871810674993194,0.6980482344420776 l -19.938344441081714 2.9302500182395734" fill="#ff820c" stroke="none" /><path d="M 120.77682067341334 96.94652285012252 l 21.198494805400095 -3.1154487261333066 a42.42620364833071,42.42620364833071 0 0,0 0.09971265675192229,0.7214711124525276 l -21.24885197870723 2.751089305480693" fill="#ff970e" stroke="none" /><path d="M 120.82617615685814 97.30363454192243 l 22.606981338635578 -2.926926341820458 a43.79566851522148,43.79566851522148 0 0,0 0.09013130590910505,0.7464165088078081 l -22.653894730804346 2.538416156089237" fill="#ffad10" stroke="none" /><path d="M 120.86939407059847 97.66154086499901 l 21.26816701366154 -2.3831424750319634 a42.40126856467397,42.40126856467397 0 0,0 0.07484350387784787,0.7240430074647136 l -21.305942910021052 2.0176949452843185" fill="#ff970d" stroke="none" /><path d="M 120.93736805541906 98.37931529534042 l 34.72034024598451 -2.6875739218177093 a55.82420250891851,55.82420250891851 0 0,0 0.0657556971995154,0.9560734058891743 l -34.76135990434909 2.091157091774201" fill="#9fff22" stroke="none" /><line stroke="#e1ed5e" stroke-width="0.3" x1="184.99686870605535" x2="189.99668451229388" y1="99.2704041080226" y2="99.22748670261217" /><path d="M 185.99683186730306 99.26182062694052 a86.0,86.0 0 0,1 -10.086455211305974,41.156179273409016" fill="none" id="id52" stroke="none" /><text fill="#e1ed5e" style="font-size:6.75px; font-family:Arial;" text-anchor="middle"><textPath startOffset="21.40746469413373" xlink:href="#id52">April</textPath></text><line stroke="#e1ed5e" stroke-width="0.3" x1="174.33088141563837" x2="178.70328620479359" y1="141.23008692659167" y2="143.65538615756765" /><path d="M 175.20536237346943 141.71514677278685 a86.0,86.0 0 0,1 -30.301960400862466,31.631185727798858" fill="none" id="id53" stroke="none" /><text fill="#e1ed5e" style="font-size:6.75px; font-family:Arial;" text-anchor="middle"><textPath startOffset="22.145653131862474" xlink:href="#id53">May</textPath></text><path d="M 116.57777611688842 112.89097897827486 l 24.472141338479343 19.029685123225125 a52.00023576651644,52.00023576651644 0 0,0 -0.5540094455010978,0.6999728363299323 l -24.141865462336682 -19.44697790346974" fill="#d4ff1c" stroke="none" /><path d="M 116.35404254752997 113.17365903436017 l 28.25067904868683 22.75674728098054 a57.276306503313265,57.276306503313265 0 0,0 -0.6233658111235966,0.7604049317076911 l -27.855866418324606 -23.238354494386726" fill="#8bff24" stroke="none" /><path d="M 116.1254893667686 113.45245675266167 l 33.86498516381986 28.251375073593035 a65.10189807360419,65.10189807360419 0 0,0 -0.7232679403132174,0.8520078150576023 l -33.37502265999953 -28.82854967110019" fill="#30ff37" stroke="none" /><path d="M 115.41159269507618 114.26474011684316 l 22.711063053780155 21.021020906094662 a51.94633588920095,51.94633588920095 0 0,0 -0.6113444701806079,0.6492266418434501 l -22.346862749863288 -21.40778900788261" fill="#d5ff1c" stroke="none" /><path d="M 114.91283532996324 114.78537596483092 l 30.05586406182617 29.79897787841028 a63.324154416845225,63.324154416845225 0 0,0 -0.7719759610309596,0.7653779155410618 l -29.539896180665245 -30.310535804180002" fill="#3eff2d" stroke="none" /><path d="M 112.7482090630111 116.68781488649013 l 31.543851320963913 41.29191395037246 a72.96187750499438,72.96187750499438 0 0,0 -1.0018256810487582,0.7517886679606892 l -30.83037265100439 -41.827321645597166" fill="#3cffa5" stroke="none" /><path d="M 111.8722381534696 117.32195027204791 l 30.807430180094034 44.94896132396251 a75.49318194420698,75.49318194420698 0 0,0 -1.0752519496609807,0.7234774987017482 l -30.03128194233605 -45.471188496721375" fill="#40ffc6" stroke="none" /><line stroke="#e1ed5e" stroke-width="0.3" x1="143.1302829299769" x2="145.66735839644613" y1="173.24464959558577" y2="177.55315839532614" /><path d="M 143.63769802327073 174.10635135553383 a86.0,86.0 0 0,1 -40.68552437913181,11.842963189579606" fill="none" id="id54" stroke="none" /><text fill="#e1ed5e" style="font-size:6.75px; font-family:Arial;" text-anchor="middle"><textPath startOffset="21.407464694133747" xlink:href="#id54">June</textPath></text><path d="M 109.3889696526874 118.78422872680471 l 13.815279653477097 27.63981379590529 a51.90018217706968,51.90018217706968 0 0,0 -0.8003496218797825,0.39149110609240606 l -13.338769782335245 -27.87289865209492" fill="#d6ff1c" stroke="none" /><path d="M 108.73861861582097 119.09545874513695 l 25.864511577006773 56.51862559691878 a83.15567551303582,83.15567551303582 0 0,0 -1.3031151565631727,0.5828668345750707 l -24.89048301758797 -56.9542961824037" fill="#4cdbff" stroke="none" /><path d="M 108.07796709384702 119.3841803445677 l 23.758436605853415 57.011598898890334 a82.76395161388486,82.76395161388486 0 0,0 -1.31612630550986,0.5352571107152616 l -22.776255839153116 -57.41104326618489" fill="#4be0ff" stroke="none" /><path d="M 107.74402155503746 119.51999308798841 l 15.292260059039396 38.546484992412445 a62.46908153050378,62.46908153050378 0 0,0 -1.0001827593861208,0.38689217770338974 l -14.628305037159747 -38.803317058253874" fill="#49ff2c" stroke="none" /><path d="M 107.06938296918513 119.77432235084164 l 20.858273577797185 58.34430348550603 a82.96067564072445,82.96067564072445 0 0,0 -1.345125295376754,0.467904402764579 l -19.85364251037541 -58.6937663208392" fill="#4bdeff" stroke="none" /><path d="M 105.69591212413111 120.21278271476187 l 14.299051897831623 50.742290741022174 a73.71852572695207,73.71852572695207 0 0,0 -1.220984492548005,0.33278475292082893 l -13.425886004348923 -50.98027598808714" fill="#3dffaf" stroke="none" /><line stroke="#e1ed5e" stroke-width="0.3" x1="101.45913802915013" x2="101.54496967792366" y1="184.9874750549273" y2="189.98673829345242" /><path d="M 101.47630435890484 185.9873277026323 a86.0,86.0 0 0,1 -42.54439059252881,-10.42667462771756" fill="none" id="id55" stroke="none" /><text fill="#e1ed5e" style="font-size:6.75px; font-family:Arial;" text-anchor="middle"><textPath startOffset="22.145653131862474" xlink:href="#id55">July</textPath></text><path d="M 92.59220618246901 119.65005319985036 l -10.9797283161947 29.12503382890311 a52.125906082107846,52.125906082107846 0 0,0 -0.8345797841648551,-0.3228333893307113 l 11.478080362853085 -28.932260551434357" fill="#d2ff1c" stroke="none" /><path d="M 92.25597844496254 119.51999308798841 l -11.385675267610123 28.699339347946204 a51.87532478060825,51.87532478060825 0 0,0 -0.8249301564181475,-0.33549191306165144 l 11.87665988521871 -28.49966017830526" fill="#d6ff1c" stroke="none" /><path d="M 91.59046798132341 119.24265499422711 l -13.54262563250161 30.988177723023302 a54.818188414162094,54.818188414162094 0 0,0 -0.8590443374683453,-0.38423960554673847 l 14.072583372825589 -30.75113436656671" fill="#adff20" stroke="none" /><line stroke="#e1ed5e" stroke-width="0.3" x1="58.13341422392154" x2="55.67067388415222" y1="173.97424548756322" y2="178.32567169271397" /><path d="M 57.64086615596768 174.84453072859336 a86.0,86.0 0 0,1 -31.369924170532247,-30.572349798747897" fill="none" id="id56" stroke="none" /><text fill="#e1ed5e" style="font-size:6.75px; font-family:Arial;" text-anchor="middle"><textPath startOffset="22.145653131862474" xlink:href="#id56">August</textPath></text><path d="M 89.65649057296885 118.27599006163327 l -15.229889875384954 26.909756109943 a51.920616415475415,51.920616415475415 0 0,0 -0.7719051199163047,-0.44565962877253223 l 15.689587463161658 -26.644349583894297" fill="#d5ff1c" stroke="none" /><path d="M 89.03521579738668 117.91015095944536 l -16.301023832521032 26.62649736092248 a52.220085517173565,52.220085517173565 0 0,0 -0.7605131118485948,-0.47461642910007473 l 16.755701073159337 -26.34274513498086" fill="#d1ff1c" stroke="none" /><path d="M 85.08716467003676 114.78537596483092 l -21.97898641099346 21.791132955080318 a51.95043326224405,51.95043326224405 0 0,0 -0.622448318795934,-0.6386868097886116 l 22.349821530940204 -21.41062345322397" fill="#d5ff1c" stroke="none" /><path d="M 83.8745106332314 113.45245675266167 l -31.64199567223346 26.396878176350658 a62.206929848979755,62.206929848979755 0 0,0 -0.6770281753516066,-0.8258642906874918 l 32.0904706668237 -25.84981160396467" fill="#4cff2c" stroke="none" /><line stroke="#e1ed5e" stroke-width="0.3" x1="26.387840678322732" x2="22.057713659400548" y1="142.50000000000003" y2="145.00000000000006" /><path d="M 25.521815274538298 143.00000000000003 a86.0,86.0 0 0,1 -11.493303480769221,-40.785679425670985" fill="none" id="id57" stroke="none" /><text fill="#e1ed5e" style="font-size:6.75px; font-family:Arial;" text-anchor="middle"><textPath startOffset="21.40746469413373" xlink:href="#id57">September</textPath></text><path d="M 81.63589988554817 110.18625677009913 l -27.12883702159907 15.047908585442187 a52.022787607504085,52.022787607504085 0 0,0 -0.4264745148859918,-0.7846650725645273 l 27.383156886100394 -14.579988679403073" fill="#d4ff1c" stroke="none" /><path d="M 79.56144815229197 104.8234425847677 l -41.10685945351933 9.701106902855281 a63.23606716151514,63.23606716151514 0 0,0 -0.24026434844280173,-1.0586490509864066 l 41.26733466351979 -8.994023517929849" fill="#40ff2d" stroke="none" /><path d="M 79.48165901384964 104.47187691870673 l -30.234325444285332 6.5894305099144415 a51.944062912228425,51.944062912228425 0 0,0 -0.18240352896337295,-0.8728669169105302 l 30.34298668407307 -6.069447141718502" fill="#d5ff1c" stroke="none" /><path d="M 79.34024301695615 103.76489593502545 l -40.62694434252469 7.403582613929722 a62.29602453181034,62.29602453181034 0 0,0 -0.18269104953808513,-1.0537134254785099 l 40.74805020955501 -6.70507615553062" fill="#4bff2c" stroke="none" /><path d="M 79.0935383218832 101.97986365728391 l -40.93698564703712 3.8767751027979163 a62.12014322766151,62.12014322766151 0 0,0 -0.09142421831735659,-1.062487999113587 l 40.99750348805221 -3.1734660563086674" fill="#4dff2c" stroke="none" /><path d="M 79.03789590574601 101.26102812881392 l -61.64707114148374 3.7085347166896767 a82.7585185222901,82.7585185222901 0 0,0 -0.07313650298583307,-1.4188286193513673 l 61.70164923392615 -2.6497343039615786" fill="#4be0ff" stroke="none" /><path d="M 79.01933749520258 100.90099992219065 l -62.94198751439227 2.7029997665719474 a84.0,84.0 0 0,0 -0.049501252012607466,-1.4411749417435205 l 62.97911345340172 -1.6221185602643071" fill="#4dd2ff" stroke="none" /><line stroke="#e1ed5e" stroke-width="0.3" x1="15.003131293944662" x2="10.003315487706104" y1="100.72959589197737" y2="100.7725132973878" /><path d="M 14.003168132696942 100.73817937305945 a86.0,86.0 0 0,1 10.791469493833604,-42.45332614584628" fill="none" id="id58" stroke="none" /><text fill="#e1ed5e" style="font-size:6.75px; font-family:Arial;" text-anchor="middle"><textPath startOffset="22.145653131862435" xlink:href="#id58">October</textPath></text><line stroke="#e1ed5e" stroke-width="0.3" x1="26.387840678322718" x2="22.05771365940052" y1="57.49999999999999" y2="54.99999999999999" /><path d="M 25.521815274538284 56.99999999999999 a86.0,86.0 0 0,1 29.574782752854787,-30.34633250058573" fill="none" id="id59" stroke="none" /><text fill="#e1ed5e" style="font-size:6.75px; font-family:Arial;" text-anchor="middle"><textPath startOffset="21.40746469413373" xlink:href="#id59">November</textPath></text><line stroke="#e1ed5e" stroke-width="0.3" x1="56.869717070023135" x2="54.33264160355391" y1="26.7553504044142" y2="22.446841604673864" /><path d="M 56.362301976729285 25.89364864446614 a86.0,86.0 0 0,1 42.16139366436587,-11.88097634709845" fill="none" id="id60" stroke="none" /><text fill="#e1ed5e" style="font-size:6.75px; font-family:Arial;" text-anchor="middle"><textPath startOffset="22.145653131862474" xlink:href="#id60">December</textPath></text></svg>