<?xml version="1.0" encoding="utf-8" ?>
<svg baseProfile="full" height="200mm" version="1.1" viewBox="0,0,200,200" width="200mm" xmlns="http://www.w3.org/2000/svg" xmlns:ev="http://www.w3.org/2001/xml-events" xmlns:xlink="http://www.w3.org/1999/xlink"><defs /><rect fill="#1a1a1a" height="200" width="200" x="0" y="0" /><text alignment-baseline="middle" fill="#e1ed5e" style="dominant-baseline: central; font-size:9.0px; font-family:Arial;" text-anchor="middle" x="100.0" y="100.0">2022</text><line stroke="#e1ed5e" stroke-width="0.3" x1="100.0" x2="100.0" y1="15.0" y2="10.0" /><path d="M 100.0 14.0 a86.0,86.0 0 0,1 42.46469731375804,11.215312516191453" fill="none" id="id25" stroke="none" /><text fill="#e1ed5e" style="font-size:6.75px; font-family:Arial;" text-anchor="middle"><textPath startOffset="22.20632615414155" xlink:href="#id25">January</textPath></text><path d="M 100.0 79.0 l 0.0 -40.73069807481261 a61.73069807481261,61.73069807481261 0 0,0 1.062592491710048,0.00914606904857057 l -0.7011120124375195 40.7246633823726" fill="#5fff29" stroke="none" /><path d="M 100.36148047927253 79.00311137660856 l 0.41467295838717894 -24.086617180297427 a45.09018640136719,45.09018640136719 0 0,0 0.7759234466453656,0.020039813429700414 l -0.8292230402274123 24.075910574725366" fill="#ffa50f" stroke="none" /><path d="M 100.72285384407766 79.0124445844662 l 0.8824987097686542 -25.622732350603417 a46.637925366210936,46.637925366210936 0 0,0 0.8020816335404392,0.03453932236378602 l -1.3234211756984249 25.603745301715435" fill="#ffbf11" stroke="none" /><path d="M 101.08401301168833 79.027996857942 l 1.320615259889386 -25.549460275125337 a46.58356787109375,46.58356787109375 0 0,0 0.8004342470641119,0.04828437967401997 l -1.76021155579311 25.522942626071014" fill="#ffbe11" stroke="none" /><path d="M 101.44485096284872 79.0497635885617 l 1.7848090851951581 -25.87960505656432 a46.94107749023438,46.94107749023438 0 0,0 0.805620230923002,0.0625316350181084 l -2.2300195054805014 25.84504815935775" fill="#ffc412" stroke="none" /><path d="M 101.80526077348638 79.07773832637324 l 2.235434494473472 -25.90780575002535 a47.00406826171875,47.00406826171875 0 0,0 0.8055039567584534,0.07649230659122057 l -2.6810635783221697 25.86548789891895" fill="#ffc512" stroke="none" /><path d="M 103.2404852339499 79.25152402106235 l 6.5637942167019805 -42.0272634508898 a63.53674020996094,63.53674020996094 0 0,0 1.079128550954039,0.17806545723763895 l -7.2862519737948945 41.908051730712536" fill="#47ff2c" stroke="none" /><path d="M 103.59715602781102 79.31037775812273 l 5.292417063751451 -30.44018912410522 a51.89684113769531,51.89684113769531 0 0,0 0.878798567043435,0.1605948209881105 l -5.815610751897787 30.344578821766373" fill="#ebff1a" stroke="none" /><path d="M 103.95276090670814 79.375362276772 l 3.3253557471934707 -17.350975484079232 a38.66675808105469,38.66675808105469 0 0,0 0.6526094238540123,0.13090731099441066 l -3.6235315805146087 17.291164217007612" fill="#ff3505" stroke="none" /><path d="M 105.71112130821622 79.79150937346287 l 6.713369834909241 -23.754892263637466 a45.68530415039062,45.68530415039062 0 0,0 0.7549165450698124,0.2203808406805648 l -7.121276597702481 23.635813094038195" fill="#ffaf10" stroke="none" /><path d="M 106.0581310904928 79.89281104454417 l 7.4556623609374775 -24.74565334426518 a46.84442416992188,46.84442416992188 0 0,0 0.7700657347809812,0.23926317228437208 l -7.880513468429177 24.61365003709829" fill="#ffc212" stroke="none" /><path d="M 106.40334571778207 80.00007090966166 l 8.00961748716694 -25.016887865232814 a47.267825390625,47.267825390625 0 0,0 0.772755067230837,0.2547651961109313 l -8.439055376640194 24.87530894486265" fill="#ffc912" stroke="none" /><path d="M 106.74666289553966 80.11325718540242 l 8.460727384057618 -24.93919025099272 a47.33528276367187,47.33528276367187 0 0,0 0.7693516119045118,0.2684116707785885 l -8.888761000025402 24.789857727041923" fill="#ffca12" stroke="none" /><path d="M 107.4271985657038 80.35727306442388 l 18.53443947527107 -49.01806923512799 a73.40511958007812,73.40511958007812 0 0,0 1.1780362416047094,0.45705975985152836 l -19.37545888187545 48.69176677138591" fill="#3cffa5" stroke="none" /><path d="M 108.09893153111575 80.62456947434976 l 10.021528503627724 -23.97494392153635 a46.985168261718755,46.985168261718755 0 0,0 0.7435206931582915,0.31833675804881156 l -10.432732954576332 23.798887635524746" fill="#ffc512" stroke="none" /><path d="M 108.43124777332544 80.76684994638697 l 10.306853972470359 -23.51173567219378 a46.67163713378906,46.67163713378906 0 0,0 0.7330066898644506,0.3288787351100234 l -10.71004278080159 23.330836606567225" fill="#ffbf11" stroke="none" /><path d="M 109.41281617654863 81.2277094730956 l 16.53239445715262 -32.97110089414798 a57.88378452191392,57.88378452191392 0 0,0 0.8868333623141963,0.454270492972 l -17.097488307055574 32.68163787586348" fill="#93ff23" stroke="none" /><line stroke="#e1ed5e" stroke-width="0.3" x1="143.23703022742887" x2="145.7803849466894" y1="26.81831364943548" y2="22.513508569990506" /><path d="M 143.74570117128098 25.957352633546492 a86.0,86.0 0 0,1 28.547481713284135,27.462654790039103" fill="none" id="id26" stroke="none" /><text fill="#e1ed5e" style="font-size:6.75px; font-family:Arial;" text-anchor="middle"><textPath startOffset="19.985693538727396" xlink:href="#id26">February</textPath></text><path d="M 112.48926042617603 83.11751280151076 l 22.746916869901366 -30.748380589161098 a59.2476814453125,59.2476814453125 0 0,0 0.8146664713443844,0.6135898964094139 l -23.27282949500413 30.352274103245836" fill="#80ff25" stroke="none" /><path d="M 113.89432698308785 84.25364557470407 l 21.22081170717548 -24.04941403353915 a53.073309228515626,53.073309228515626 0 0,0 0.6798160492567165,0.6103455612657199 l -21.631638744028184 23.68056946350413" fill="#daff1c" stroke="none" /><path d="M 114.42810811169701 84.74124197986012 l 11.419240645840889 -12.076665106728102 a37.62061662597657,37.62061662597657 0 0,0 0.46670481031905453,0.4489696577571939 l -11.62542869977236 11.878312362208606" fill="#ff2103" stroke="none" /><path d="M 114.68862486808459 84.99185889309783 l 10.901479956209897 -11.138615828657823 a36.585603222656246,36.585603222656246 0 0,0 0.4462819892822649,0.4443655125923377 l -11.091597745659486 10.949314465415368" fill="#ff0e01" stroke="none" /><path d="M 114.94478906791727 85.2469230424477 l 23.18537713818608 -22.887954567645323 a53.57944409179687,53.57944409179687 0 0,0 0.6422790861345995,0.6619250561872855 l -23.57592048802379 22.485465315907923" fill="#d2ff1c" stroke="none" /><path d="M 116.60985879189232 87.15038557335679 l 20.384819842265276 -15.76997603721668 a46.77271860351563,46.77271860351563 0 0,0 0.4871580428436224,0.6410428803582953 l -20.653253825333014 15.41674838097735" fill="#ffc111" stroke="none" /><path d="M 116.82858285166822 87.43820079747576 l 24.039893550215094 -17.944726438918423 a50.998828125,50.998828125 0 0,0 0.5190645851573378,0.7080035108180952 l -24.34522074788606 17.528260484428834" fill="#f9ff18" stroke="none" /><path d="M 117.2510076193507 88.02491185347247 l 42.640538602234635 -29.599674386810612 a72.9071888671875,72.9071888671875 0 0,0 0.7067676157251557,1.037094265533527 l -43.143730683628526 28.86130209800668" fill="#3bff9e" stroke="none" /><path d="M 117.65298651832404 88.62581576622439 l 26.326028089111496 -16.962404254843 a52.317453808593754,52.317453808593754 0 0,0 0.48125182430939223,0.7612248131818659 l -26.614107509666844 16.50673179394693" fill="#e5ff1a" stroke="none" /><line stroke="#e1ed5e" stroke-width="0.3" x1="172.23445277983987" x2="176.4835382374775" y1="55.19839476539836" y2="52.563006222186495" /><path d="M 173.08426987136738 54.67131705675599 a86.0,86.0 0 0,1 12.851231095245387,41.99856678651699" fill="none" id="id27" stroke="none" /><text fill="#e1ed5e" style="font-size:6.75px; font-family:Arial;" text-anchor="middle"><textPath startOffset="22.20632615414155" xlink:href="#id27">March</textPath></text><path d="M 117.84615892207809 88.93136811851018 l 26.927074936423523 -16.700841980502606 a52.68573002929688,52.68573002929688 0 0,0 0.4713722061077126,0.7748119678646807 l -27.210562940817457 16.234862239430843" fill="#dfff1b" stroke="none" /><path d="M 118.03404312379186 89.2402003453031 l 27.400282967702047 -16.34805646136706 a52.90665223388672,52.90665223388672 0 0,0 0.459885596259946,0.7860935581145443 l -27.67762823843232 15.873983490898624" fill="#dcff1b" stroke="none" /><path d="M 118.21658344932153 89.55222093294921 l 27.912314626660617 -16.008583458070003 a53.17719770507812,53.17719770507812 0 0,0 0.4485682967112456,0.7979529472537024 l -28.183740564664294 15.525747000881505" fill="#d8ff1c" stroke="none" /><path d="M 118.56541770881063 90.18545643968196 l 45.95899250098687 -24.29606168651957 a72.9858404296875,72.9858404296875 0 0,0 0.5775980091569077,1.1157355079373068 l -46.37039994330389 23.50135345632192" fill="#3bff9f" stroke="none" /><path d="M 118.89224826269711 90.83032412892265 l 17.73364147164564 -8.607326245546098 a40.71213090820312,40.71213090820312 0 0,0 0.3005753480266036,0.6330883392147097 l -17.879175013514 8.300795490690847" fill="#ff5908" stroke="none" /><path d="M 119.04729006885535 91.15688171328212 l 29.442398846280025 -13.66927340850996 a53.46080537109375,53.46080537109375 0 0,0 0.38032954551023146,0.8380057389401 l -29.673330708753603 13.160445660727797" fill="#d4ff1c" stroke="none" /><path d="M 119.196687751892 91.48605970444005 l 26.98538761867992 -11.968313596981815 a50.5203603515625,50.5203603515625 0 0,0 0.3457259583150011,0.7979831783050647 l -27.1874042868376 11.502031274090147" fill="#fffd17" stroke="none" /><path d="M 119.34039704204932 91.81776055985345 l 29.723682518066088 -12.575041085089556 a53.274277075195315,53.274277075195315 0 0,0 0.3500330896758464,0.8476328910256848 l -29.935737294628133 12.061533623610567" fill="#d7ff1c" stroke="none" /><path d="M 119.61058180528143 92.48833698450437 l 50.00012947531519 -19.152115275262652 a74.54266025390625,74.54266025390625 0 0,0 0.44865953414171544,1.202184492013389 l -50.32239359795853 18.28860764621993" fill="#3effb5" stroke="none" /><path d="M 119.85752413597 93.16781622104841 l 18.670972105265854 -6.423938446776747 a40.74518129882813,40.74518129882813 0 0,0 0.22247394064207135,0.6651687655021432 l -18.778783339679695 6.101596578352289" fill="#ff5a08" stroke="none" /><path d="M 119.97218684219823 93.5106431181261 l 18.46509615529385 -5.999673433689485 a40.41535107421875,40.41535107421875 0 0,0 0.20928322861447746,0.6634850265073693 l -18.565634867676533 5.6809382407556965" fill="#ff5407" stroke="none" /><path d="M 120.18372546131832 94.20196356495316 l 22.82190690533595 -6.5558882084468415 a44.74487534179687,44.74487534179687 0 0,0 0.20628075630689824,0.7421016338798053 l -22.93137443220921 6.162075271148084" fill="#ff9f0e" stroke="none" /><path d="M 120.37134235888165 94.90015583598534 l 51.05653222417509 -12.781698589674066 a73.6321318359375,73.6321318359375 0 0,0 0.29721855364564714,1.2321627881690498 l -51.26898357808156 11.90095056984561" fill="#3cffa8" stroke="none" /><path d="M 120.6074358757038 95.95851677861258 l 30.47264408016898 -5.976225305474006 a52.05313681640625,52.05313681640625 0 0,0 0.16487031969353874,0.8807438403671297 l -30.571000123772375 5.450803387644314" fill="#e9ff1a" stroke="none" /><path d="M 120.83666639777658 97.38593545837742 l 50.88951243313192 -6.3843451467892445 a72.28842304687501,72.28842304687501 0 0,0 0.1442658234200838,1.2359814734096428 l -50.991868609555596 5.507419935054749" fill="#3aff95" stroke="none" /><path d="M 120.91429891909075 98.10471618934814 l 15.05288640415624 -1.3641141888498545 a36.11456901855469,36.11456901855469 0 0,0 0.050776251995681435,0.6195988858773688 l -15.074137139971416 1.104801385764717" fill="#ff0500" stroke="none" /><line stroke="#e1ed5e" stroke-width="0.3" x1="184.98032266829074" x2="189.97916517819016" y1="98.17113171792111" y2="98.06355123074" /><path d="M 185.9800911702706 98.14961562048488 a86.0,86.0 0 0,1 -9.607161424134198,41.387399972396054" fill="none" id="id28" stroke="none" /><text fill="#e1ed5e" style="font-size:6.75px; font-family:Arial;" text-anchor="middle"><textPath startOffset="21.466115282336823" xlink:href="#id28">April</textPath></text><path d="M 120.99980553446 99.90962569577887 l 26.184409378684798 -0.11268665203383384 a47.18465185546875,47.18465185546875 0 0,0 -0.003495490037400448,0.8122287819052798 l -26.182469591357897 -0.3380516080751306" fill="#ffc812" stroke="none" /><path d="M 120.99824983174949 100.27111621757518 l 26.10130540898821 0.3370036671132425 a47.103480908203124,47.103480908203124 0 0,0 -0.01744609151533105,0.8106513196171666 l -26.091637254787873 -0.786244802520524" fill="#ffc612" stroke="none" /><path d="M 120.9764740272857 100.99374915477107 l 40.737361153276915 1.9299105350600652 a61.78304976832717,61.78304976832717 0 0,0 -0.05946956614834664,1.0618690529735926 l -40.698105236241034 -2.6308513043690813" fill="#5eff29" stroke="none" /><path d="M 120.95626037817324 101.35467743843564 l 32.37047233698817 2.092527376310709 a53.438035546875,53.438035546875 0 0,0 -0.0672388951126614,0.9174213022613782 l -32.32965688321117 -2.6494218150688575" fill="#d4ff1c" stroke="none" /><path d="M 120.92983693683757 101.71520430193887 l 33.28105287133007 2.7273889056197063 a54.3926208984375,54.3926208984375 0 0,0 -0.08450386744569108,0.9324931356694987 l -33.2291744076073 -3.2998634298377754" fill="#c6ff1e" stroke="none" /><path d="M 120.8583938346157 102.4346265915055 l 52.665393221214075 6.147192722752811 a74.02293486328125,74.02293486328125 0 0,0 -0.15861525476031071,1.2643196433809336 l -52.55177645720691 -7.05283012042114" fill="#3dffad" stroke="none" /><path d="M 120.76222939487914 103.15116336523771 l 32.45583379655389 4.925946655476671 a53.82752043457031,53.82752043457031 0 0,0 -0.14691900182816514,0.9148647646291233 l -32.366233040364435 -5.483890649798999" fill="#ceff1d" stroke="none" /><path d="M 120.70491114924044 103.5080841355445 l 30.611872455185438 5.186645011190365 a52.04815649414063,52.04815649414063 0 0,0 -0.15726860472570867,0.8820458550079867 l -30.51805740812054 -5.71280961693157" fill="#e9ff1a" stroke="none" /><path d="M 120.64145759157962 103.86396538481128 l 30.36528744061841 5.684211933669716 a51.892732910156255,51.892732910156255 0 0,0 -0.17191337650645386,0.8765826030860678 l -30.262944131136294 -6.206058263823729" fill="#ecff1a" stroke="none" /><path d="M 120.5718875245553 104.21870165774334 l 30.784137120415018 6.312939935486082 a52.424772216796875,52.424772216796875 0 0,0 -0.18889384687790686,0.8824491666139459 l -30.670909234812665 -6.841902921516196" fill="#e3ff1b" stroke="none" /><path d="M 120.02730092923936 106.31721596034902 l 35.535872655734806 11.20908816913974 a58.261802197265624,58.261802197265624 0 0,0 -0.3099187988187247,0.9538319849855251 l -35.33766160589983 -11.81911905410306" fill="#8eff24" stroke="none" /><path d="M 119.9155931802556 106.66101706037122 l 38.21113454034757 12.780187703459037 a61.2917361328125,61.2917361328125 0 0,0 -0.34326048364889694,0.997675642154436 l -37.985483225755445 -13.436036048702773" fill="#65ff29" stroke="none" /><path d="M 119.79798401119884 107.00284435728193 l 24.71804888005221 8.74314521240038 a47.21878198242187,47.21878198242187 0 0,0 -0.27763685712917263,0.7639373905340493 l -24.563887761917808 -9.16733039994056" fill="#ffc812" stroke="none" /><path d="M 119.41010516605496 108.01547362559984 l 15.787752576620997 6.519609930125976 a38.08093806152344,38.08093806152344 0 0,0 -0.25541251244009683,0.6037197317719114 l -15.673189082988591 -6.790404187564051" fill="#ff2a04" stroke="none" /><path d="M 118.81262510543309 109.33194174019688 l 34.16287244792838 16.946382207434382 a59.13504587402344,59.13504587402344 0 0,0 -0.46018704090394824,0.9079926896593725 l -33.866106737238155 -17.53192910879645" fill="#82ff25" stroke="none" /><path d="M 118.64920377521936 109.65438752849418 l 55.94761132565807 28.96316258548255 a84.0,84.0 0 0,0 -0.6757899671004277,1.2783399396554627 l -55.44076885033275 -29.921917540224147" fill="#4dd2ff" stroke="none" /><line stroke="#e1ed5e" stroke-width="0.3" x1="174.80103733775053" x2="179.2010983576182" y1="140.37084112569926" y2="142.7455964860345" /><path d="M 175.68104954172406 140.8457921977663 a86.0,86.0 0 0,1 -30.038265399797805,32.042727171017184" fill="none" id="id29" stroke="none" /><text fill="#e1ed5e" style="font-size:6.75px; font-family:Arial;" text-anchor="middle"><textPath startOffset="22.206326154141568" xlink:href="#id29">May</textPath></text><path d="M 118.12598468904814 110.60418214915192 l 22.878743552730718 13.384672233750639 a47.50634560546875,47.50634560546875 0 0,0 -0.41900398722963306,0.7022747836611809 l -22.644958689802856 -13.776509111297925" fill="#ffcd13" stroke="none" /><path d="M 116.93607887273984 112.41649034213515 l 29.12418178571052 21.352057024658954 a57.112716650390624,57.112716650390624 0 0,0 -0.5880943573372663,0.787848496659622 l -28.75232616167816 -21.85021840082789" fill="#9eff22" stroke="none" /><path d="M 115.07121518719521 114.62390073753431 l 29.366115980363627 28.4945281325838 a61.91829543457031,61.91829543457031 0 0,0 -0.7487967431519124,0.7585271474788964 l -28.87127861215618 -28.995795774043362" fill="#5dff2a" stroke="none" /><path d="M 114.81725581225074 114.88116024355365 l 18.25939043379604 18.338140235810314 a46.878422021484376,46.878422021484376 0 0,0 -0.5767163124665764,0.5644382944421218 l -17.941024168953668 -18.64972863317501" fill="#ffc312" stroke="none" /><path d="M 114.0293411484842 115.62618273729858 l 34.64231917511034 38.585362216570246 a72.85480166015626,72.85480166015626 0 0,0 -0.9403738627361515,0.8297705984704385 l -33.9730029594676 -39.17595595681297" fill="#3bff9d" stroke="none" /><path d="M 112.92097659922987 116.55440617244103 l 16.15717083352501 20.700630987260876 a47.259670458984374,47.259670458984374 0 0,0 -0.6455924645498724,0.49501277234189206 l -15.798449640481646 -20.97568310143014" fill="#ffc912" stroke="none" /><path d="M 111.45004920935366 117.60387380957326 l 17.92103222016235 27.552684182642274 a53.86812744140625,53.86812744140625 0 0,0 -0.7816475581453146,0.49888445398255954 l -17.444102859970105 -27.85708306544864" fill="#ceff1d" stroke="none" /><path d="M 111.1453310114006 117.79835938074945 l 16.039894007395013 25.614654035911858 a51.22232124023438,51.22232124023438 0 0,0 -0.7513114461781567,0.4615168540225752 l -15.596603361284549 -25.886959356762812" fill="#f6ff19" stroke="none" /><line stroke="#e1ed5e" stroke-width="0.3" x1="143.8653032363475" x2="146.44561519142675" y1="172.8068346515853" y2="177.08958963109032" /><path d="M 144.38136562736335 173.6633856474863 a86.0,86.0 0 0,1 -40.68145358897372,12.25698825130547" fill="none" id="id30" stroke="none" /><text fill="#e1ed5e" style="font-size:6.75px; font-family:Arial;" text-anchor="middle"><textPath startOffset="21.466115282336833" xlink:href="#id30">June</textPath></text><path d="M 110.5260780823613 118.17145234162733 l 12.97728968876882 22.40304501427888 a46.89027758789062,46.89027758789062 0 0,0 -0.7019055513886038,0.39856029068807436 l -12.58973537045902 -22.623108470761586" fill="#ffc312" stroke="none" /><path d="M 109.89434966115114 118.52300852407294 l 12.578216645988032 23.547420712860266 a47.69630229492188,47.69630229492188 0 0,0 -0.727502835281422,0.38059509951183323 l -12.171022908180115 -23.760445231316815" fill="#ffd013" stroke="none" /><path d="M 109.57404056367764 118.69057910512821 l 11.863850475294361 23.160778808600043 a47.022540673828125,47.022540673828125 0 0,0 -0.7235785842655245,0.36281732339573963 l -11.463417983346076 -23.361563972905085" fill="#ffc512" stroke="none" /><line stroke="#e1ed5e" stroke-width="0.3" x1="102.19456741930631" x2="102.32365962044197" y1="184.97166512339345" y2="189.96999836594603" /><path d="M 102.22038585953345 185.97133177190398 a86.0,86.0 0 0,1 -42.740103519485714,-10.115201625700543" fill="none" id="id31" stroke="none" /><text fill="#e1ed5e" style="font-size:6.75px; font-family:Arial;" text-anchor="middle"><textPath startOffset="22.20632615414155" xlink:href="#id31">July</textPath></text><path d="M 94.81253420990036 120.34920634021253 l -8.819638610241016 34.59736472256378 a56.70383272089083,56.70383272089083 0 0,0 -0.943739593579521,-0.24925020418004046 l 9.413868646632027 -34.440423169080155" fill="#a4ff21" stroke="none" /><path d="M 94.46302465271185 120.25689768951611 l -5.966432536720137 21.828056996304724 a43.62879558105469,43.62879558105469 0 0,0 -0.7227189597992417,-0.20424759708383206 l 6.341282664623993 -21.72212060588237" fill="#ff8c0c" stroke="none" /><path d="M 93.76903079525671 120.05430185196036 l -11.293274803824028 36.34727349328252 a59.06129722158934,59.06129722158934 0 0,0 -0.9682639983158552,-0.31000755549146547 l 11.917260147230824 -36.147493091131345" fill="#83ff25" stroke="none" /><path d="M 91.40352486487194 119.15986991738527 l -16.67451273285846 37.16424346902895 a61.733528787763035,61.733528787763035 0 0,0 -0.9657828543330238,-0.4433435397665858 l 17.311763582958903 -36.87171285892829" fill="#5fff29" stroke="none" /><line stroke="#e1ed5e" stroke-width="0.3" x1="58.666819895761336" x2="56.23545636021788" y1="174.27360380694188" y2="178.64263932499728" /><path d="M 58.180547188652646 175.14741091055294 a86.0,86.0 0 0,1 -31.652253787137756,-30.449443065178592" fill="none" id="id32" stroke="none" /><text fill="#e1ed5e" style="font-size:6.75px; font-family:Arial;" text-anchor="middle"><textPath startOffset="22.20632615414155" xlink:href="#id32">August</textPath></text><path d="M 89.4739219176387 118.17145234162733 l -20.14650518429765 34.77945498240958 a61.19318549224964,61.19318549224964 0 0,0 -0.9069183523479989,-0.5358233482956323 l 20.742191407674028 -34.4275130618202" fill="#66ff29" stroke="none" /><line stroke="#e1ed5e" stroke-width="0.3" x1="26.63291911575756" x2="22.317208475507996" y1="142.92168965132927" y2="145.44649492493687" /><path d="M 25.769776987707644 143.4266507060508 a86.0,86.0 0 0,1 -11.730757126820373,-40.83630448921669" fill="none" id="id33" stroke="none" /><text fill="#e1ed5e" style="font-size:6.75px; font-family:Arial;" text-anchor="middle"><textPath startOffset="21.46611528233685" xlink:href="#id33">September</textPath></text><path d="M 81.87401531095188 110.60418214915194 l -43.70808609947344 25.570390483098876 a71.638341796875,71.638341796875 0 0,0 -0.6135244176724615,-1.0697315363390167 l 44.14176251329828 -24.814239100901553" fill="#39ff8c" stroke="none" /><path d="M 81.18737489456691 109.33194174019688 l -43.36455958133711 21.510849301167653 a69.4066283203125,69.4066283203125 0 0,0 -0.5216957261768547,-1.074847717094203 l 43.728408564128685 -20.761212628108165" fill="#36ff6c" stroke="none" /><path d="M 81.02952815118164 109.00673069616217 l -39.083664527533934 18.555998175689584 a64.26497314453124,64.26497314453124 0 0,0 -0.46584572193831025,-1.0033902414741374 l 39.39728486631207 -17.88048786693662" fill="#3eff2d" stroke="none" /><path d="M 80.87730276802145 108.67885076344099 l -36.81526975060225 16.708638331991292 a61.42947788085937,61.42947788085937 0 0,0 -0.4287160782734564,-0.9666415787673869 l 37.09742691360698 -16.07244841673121" fill="#63ff29" stroke="none" /><path d="M 80.73074385275274 108.34839909993369 l -16.083058298613782 6.967979894932757 a38.527621289062495,38.527621289062495 0 0,0 -0.2584084597885168,-0.6108012663150347 l 16.200617739594605 -6.6901041029515635" fill="#ff3204" stroke="none" /><path d="M 80.32549172779594 107.34259656027581 l -38.13076772591745 14.230538322553587 a61.699676513671875,61.699676513671875 0 0,0 -0.3627815787268683,-0.998219096168093 l 38.37007356564954 -13.572071429379376" fill="#5fff29" stroke="none" /><path d="M 80.20201598880116 107.00284435728193 l -36.413733068827305 12.880084406794435 a59.62455864257812,59.62455864257812 0 0,0 -0.33392356177763616,-0.9705381766802944 l 36.630047461548166 -12.251373527024844" fill="#7bff26" stroke="none" /><path d="M 80.0844068197444 106.66101706037122 l -38.890672472573634 13.007467590066417 a62.008275,62.008275 0 0,0 -0.3298478485054944,-1.0151672931180415 l 39.10881257209538 -12.336101396970573" fill="#5bff2a" stroke="none" /><path d="M 79.97269907076064 106.31721596034903 l -14.13968468322755 4.460083866057946 a35.82643015136719,35.82643015136719 0 0,0 -0.1804512926997044,-0.5897252653845568 l 14.214362748433384 -4.216031628121342" fill="#ff0000" stroke="none" /><path d="M 79.86692584326677 105.97154293290107 l -39.205810667806304 11.628585868179425 a61.89400444335938,61.89400444335938 0 0,0 -0.2941655893357837,-1.0240290073776446 l 39.40016889402819 -10.951999385297183" fill="#5dff2a" stroke="none" /><path d="M 79.0095281055655 100.63252640178507 l -41.154765784596684 1.2401567744144224 a62.17344697265625,62.17344697265625 0 0,0 -0.023027674914777776,-1.0700055677785882 l 41.17001552219647 -0.5315613908457053" fill="#59ff2a" stroke="none" /><line stroke="#e1ed5e" stroke-width="0.3" x1="15.007084014347285" x2="10.007500721073583" y1="101.09737516637583" y2="101.16192664675087" /><path d="M 14.007167355692545 101.11028546245083 a86.0,86.0 0 0,1 10.666146001902534,-42.60595125391555" fill="none" id="id34" stroke="none" /><text fill="#e1ed5e" style="font-size:6.75px; font-family:Arial;" text-anchor="middle"><textPath startOffset="22.20632615414155" xlink:href="#id34">October</textPath></text><path d="M 79.03285615573316 98.82574320788736 l -37.65185400833321 -2.108677540122297 a58.71085561523437,58.71085561523437 0 0,0 0.06519535497964264,-1.008543285387903 l 37.60997806234916 2.7564798897632117" fill="#88ff25" stroke="none" /><path d="M 79.08570108090925 98.10471618934814 l -38.80646632628288 -3.516697722517194 a59.965484619140625,59.965484619140625 0 0,0 0.10200664145018143,-1.027192958603429 l 38.74018255915047 4.184166211825053" fill="#77ff27" stroke="none" /><path d="M 79.12142395522702 97.74499172005258 l -40.993949403016366 -4.427586207666241 a62.232358740234375,62.232358740234375 0 0,0 0.12419696126463052,-1.06404371830927 l 40.911662088748145 5.132573664300373" fill="#58ff2a" stroke="none" /><path d="M 79.21141760316559 97.0276538004421 l -24.306177516982522 -3.4752910510811974 a45.55336867675781,45.55336867675781 0 0,0 0.1176667516524192,-0.7752768761239769 l 24.2427548718908 3.8931670395972664" fill="#ffad10" stroke="none" /><path d="M 79.32604984820605 96.31383870115002 l -30.29050872781645 -5.4007918261941805 a51.768221777343754,51.768221777343754 0 0,0 0.16396789504732176,-0.8759230518223664 l 30.19305510885927 5.92139295547912" fill="#edff19" stroke="none" /><path d="M 79.62865764111835 94.90015583598534 l -49.96938291321537 -12.509537238142265 a72.511433203125,72.511433203125 0 0,0 0.31353829124690186,-1.208190936492773 l 49.74664829009816 13.367824600183901" fill="#3bff98" stroke="none" /><path d="M 79.91906864156998 93.8553929516997 l -36.55043860095275 -11.1841467229357 a59.22328740234375,59.22328740234375 0 0,0 0.30667655896307133,-0.9722484988399348 l 36.35250655822148 11.81164538820205" fill="#81ff25" stroke="none" /><path d="M 80.02781315780177 93.51064311812611 l -30.979881025182234 -10.065973532033784 a53.574174609375,53.574174609375 0 0,0 0.29252189736450174,-0.8746032402299878 l 30.80202183404596 10.597749875186093" fill="#d2ff1c" stroke="none" /><path d="M 80.803312248108 91.48605970444005 l -28.65557256547952 -12.709058828835326 a52.347440332031255,52.347440332031255 0 0,0 0.3724088713573651,-0.8205535833694096 l 28.4325613771588 13.200434421046808" fill="#e5ff1a" stroke="none" /><path d="M 80.95270993114464 91.15688171328213 l -23.676825994393237 -10.992480933800277 a47.10415151367188,47.10415151367188 0 0,0 0.34776727277292774,-0.7324865681717646 l 23.48410052777856 11.398409917612573" fill="#ffc612" stroke="none" /><path d="M 81.10775173730289 90.83032412892265 l -47.51468332085518 -23.06206435098613 a73.8157546875,73.8157546875 0 0,0 0.5646553274682886,-1.1383106844409387 l 47.110667980433476 23.87653462392603" fill="#3dffab" stroke="none" /><line stroke="#e1ed5e" stroke-width="0.3" x1="26.266209847984243" x2="21.928928074336255" y1="57.711370442889674" y2="55.22380399835377" /><path d="M 25.398753493254645 57.213857153982495 a86.0,86.0 0 0,1 29.58750427330803,-30.492523968695096" fill="none" id="id35" stroke="none" /><text fill="#e1ed5e" style="font-size:6.75px; font-family:Arial;" text-anchor="middle"><textPath startOffset="21.46611528233685" xlink:href="#id35">November</textPath></text><path d="M 81.78341655067845 89.55222093294921 l -22.233783951222193 -12.75176891392115 a46.631011669921875,46.631011669921875 0 0,0 0.4053352404764578,-0.6928493173229311 l 22.01098903627541 13.132597643597974" fill="#ffbf11" stroke="none" /><path d="M 82.15384107792192 88.93136811851018 l -21.523168261186974 -13.349204579351758 a46.3268244140625,46.3268244140625 0 0,0 0.4261459062074131,-0.6740604844593955 l 21.2901947587336 13.717712711525369" fill="#ffba11" stroke="none" /><path d="M 82.34701348167596 88.62581576622439 l -44.22782172972495 -28.496900062224437 a73.61343486328124,73.61343486328124 0 0,0 0.6954834837969321,-1.0592690602019157 l 43.7307416105701 29.25398718640402" fill="#3cffa8" stroke="none" /><path d="M 82.95767976084542 87.72973835380427 l -21.308451535189096 -15.341823879787723 a47.25684038085937,47.25684038085937 0 0,0 0.48097874304119603,-0.6560544649734138 l 21.041210179634266 15.706340788432637" fill="#ffc912" stroke="none" /><path d="M 83.39014120810768 87.1503855733568 l -41.81389047679247 -32.34779880048932 a73.86569326171875,73.86569326171875 0 0,0 0.786655280099086,-0.9989723196313922 l 41.25088111609942 33.062763514073765" fill="#3dffab" stroke="none" /><path d="M 83.6137871275137 86.86637796730984 l -41.04507252272353 -32.89780701695556 a73.6019361328125,73.6019361328125 0 0,0 0.8008644472592716,-0.9817651170616986 l 40.47270958338787 33.599456303625345" fill="#3cffa8" stroke="none" /><path d="M 83.84228863543731 86.58626213691792 l -19.99518438161208 -16.59951435988512 a46.98752153320312,46.98752153320312 0 0,0 0.5219852415353093,-0.6178658833572973 l 19.706488526589645 16.941239192871535" fill="#ffc512" stroke="none" /><path d="M 84.31358615837235 86.03803664274999 l -18.868888877174413 -16.794580186072395 a46.26050061035156,46.26050061035156 0 0,0 0.5345430791136733,-0.5902558189551763 l 18.577002157444692 17.116888792297125" fill="#ffb911" stroke="none" /><path d="M 84.5562425177563 85.77008943001954 l -37.20312722748256 -34.27903953939648 a71.58779721679687,71.58779721679687 0 0,0 0.8428020390545063,-0.8990424525905589 l 36.6075578664576 34.91435140886509" fill="#39ff8b" stroke="none" /><path d="M 84.80347519578584 85.50635884689758 l -18.656275608181396 -17.793368378760817 a46.781011962890624,46.781011962890624 0 0,0 0.5607834519614999,-0.57793664150342 l 18.347227892516777 18.11186921581436" fill="#ffc112" stroke="none" /><path d="M 85.05521093208273 85.24692304244772 l -36.649481310432286 -36.17934089065958 a72.49882705078124,72.49882705078124 0 0,0 0.8843620962034155,-0.8805643643129695 l 36.02128341406156 36.804841105622664" fill="#3bff98" stroke="none" /><path d="M 86.10567301691215 84.25364557470407 l -35.067615071570046 -39.74191023709986 a74.001481640625,74.001481640625 0 0,0 0.9623935021610298,-0.834578161490991 l 34.37832777076224 40.339653392010526" fill="#3dffad" stroke="none" /><path d="M 86.37877921826538 84.01681056812374 l -16.526846324490702 -19.392660889107468 a46.479637866210936,46.479637866210936 0 0,0 0.6134038723566809,-0.5137081025477281 l 16.19058491517491 19.674270149049008" fill="#ffbc11" stroke="none" /><path d="M 86.93701828274178 83.55741782278169 l -15.621076150051406 -19.662496193687957 a46.11238293457031,46.11238293457031 0 0,0 0.6257394257321242,-0.4883995470982262 l 15.280304169159857 19.928474130009405" fill="#ffb610" stroke="none" /><path d="M 88.39885842347998 82.49532879139004 l -14.584679323011342 -22.006456394691075 a47.40070063476563,47.40070063476563 0 0,0 0.6839988234886503,-0.4448918614621008 l 14.203713473738404 22.25424718031271" fill="#ffcb13" stroke="none" /><line stroke="#e1ed5e" stroke-width="0.3" x1="56.762969772571076" x2="54.21961505331055" y1="26.818313649435495" y2="22.513508569990535" /><path d="M 56.25429882871897 25.957352633546506 a86.0,86.0 0 0,1 42.265352541879196,-11.944610805530505" fill="none" id="id36" stroke="none" /><text fill="#e1ed5e" style="font-size:6.75px; font-family:Arial;" text-anchor="middle"><textPath startOffset="22.20632615414155" xlink:href="#id36">December</textPath></text><path d="M 91.23893434514133 80.91482961587045 l -10.287123939526966 -22.409547066874165 a45.65791391601563,45.65791391601563 0 0,0 0.7170855449050788,-0.32173538145698893 l 9.899856276155113 22.58330277884768" fill="#ffaf10" stroke="none" /><path d="M 91.90106846888425 80.62456947434976 l -15.67552073312738 -37.501238496858505 a61.64560048828125,61.64560048828125 0 0,0 0.9825608024922925,-0.4008112219691036 l 15.027676061046707 37.76551060501119" fill="#60ff29" stroke="none" /><path d="M 92.57280143429618 80.3572730644239 l -9.229226244269501 -24.408553149495525 a47.09513525390625,47.09513525390625 0 0,0 0.7607382022979214,-0.28018630004011 l 8.80770571619901 24.563802717341957" fill="#ffc612" stroke="none" /></svg>